<svg xmlns="http://www.w3.org/2000/svg" width="63" height="86.985" viewBox="0 0 63 86.985">
  <g id="Group_17" data-name="Group 17" transform="translate(0 2789)">
    <g id="Group_5" data-name="Group 5" transform="translate(0 -2789)">
      <g id="docs" transform="translate(0 0)">
        <path id="Path_8" data-name="Path 8" d="M133.589,23.825V81.381a5.6,5.6,0,0,1-5.6,5.6H76.193a5.6,5.6,0,0,1-5.6-5.6V5.6a5.6,5.6,0,0,1,5.6-5.6h33.572Z" transform="translate(-70.589)" fill="#2196f3"/>
        <path id="Path_9" data-name="Path 9" d="M320.31,122.889l20.574,8.476v-7.958l-11.665-3.444Z" transform="translate(-277.884 -99.581)" fill="#1671b9"/>
        <path id="Path_10" data-name="Path 10" d="M325,23.825H306.781a5.6,5.6,0,0,1-5.6-5.6V0Z" transform="translate(-262.002)" fill="#a6c7ec"/>
      </g>
    </g>
    <g id="Group_7" data-name="Group 7" transform="translate(5.267 -2740.425)">
      <path id="Path_27" data-name="Path 27" d="M130.959,39.346l-2.274,2.168a7.042,7.042,0,0,0-5.222-2.453,5.722,5.722,0,0,0-5.8,5.8A6.1,6.1,0,0,0,118.4,47.9a5.323,5.323,0,0,0,2.1,2.081,6.1,6.1,0,0,0,3.017.756,6.217,6.217,0,0,0,2.588-.529,9.275,9.275,0,0,0,2.576-1.924l2.2,2.3a12.1,12.1,0,0,1-3.577,2.562,9.763,9.763,0,0,1-3.844.715,8.849,8.849,0,0,1-6.521-2.526,8.745,8.745,0,0,1-2.538-6.475,8.862,8.862,0,0,1,1.156-4.541,8.593,8.593,0,0,1,3.31-3.194,9.334,9.334,0,0,1,4.64-1.208,9.848,9.848,0,0,1,7.444,3.432Z" transform="translate(-78.392 -35.914)" fill="#fff"/>
      <path id="Path_28" data-name="Path 28" d="M119.119,35.914a8.484,8.484,0,0,1,6.235,2.625,8.734,8.734,0,0,1,2.609,6.4,8.637,8.637,0,0,1-2.574,6.329,8.919,8.919,0,0,1-12.638-.07,8.977,8.977,0,0,1,6.368-15.284Zm-.035,3.182a5.362,5.362,0,0,0-3.988,1.649,5.742,5.742,0,0,0-1.616,4.193,5.464,5.464,0,0,0,2.035,4.483,5.578,5.578,0,0,0,3.627,1.289,5.3,5.3,0,0,0,3.941-1.672,6.027,6.027,0,0,0-.012-8.252A5.347,5.347,0,0,0,119.084,39.1Z" transform="translate(-94.235 -35.914)" fill="#fff"/>
      <path id="Path_29" data-name="Path 29" d="M125.039,38.443h3.852a12.7,12.7,0,0,1,5.535.923,7.211,7.211,0,0,1,2.982,3,10.526,10.526,0,0,1,.516,8.484,7.531,7.531,0,0,1-1.81,2.747,6.393,6.393,0,0,1-2.5,1.51,17.805,17.805,0,0,1-4.665.418h-3.911Zm3.229,3.136V52.357h1.51a7.559,7.559,0,0,0,3.234-.512,3.876,3.876,0,0,0,1.643-1.721,6.312,6.312,0,0,0,.639-2.976,5.659,5.659,0,0,0-1.521-4.22,6.1,6.1,0,0,0-4.4-1.349Z" transform="translate(-125.039 -38.014)" fill="#fff"/>
    </g>
  </g>
</svg>
