<svg id="Icon_awesome-home" data-name="Icon awesome-home" xmlns="http://www.w3.org/2000/svg" width="70" height="54.434" viewBox="0 0 70 54.434">
  <path id="Icon_awesome-home-2" data-name="Icon awesome-home" d="M34.071,16.375l-22.4,18.453V54.743a1.944,1.944,0,0,0,1.944,1.944l13.617-.035a1.944,1.944,0,0,0,1.935-1.944V43.078a1.944,1.944,0,0,1,1.944-1.944h7.777a1.944,1.944,0,0,1,1.944,1.944V54.7a1.944,1.944,0,0,0,1.944,1.95l13.612.038a1.944,1.944,0,0,0,1.944-1.944V34.814L35.93,16.375A1.481,1.481,0,0,0,34.071,16.375Zm35.39,12.542L59.3,20.543V3.712a1.458,1.458,0,0,0-1.458-1.458H51.038A1.458,1.458,0,0,0,49.58,3.712v8.823L38.7,3.584a5.833,5.833,0,0,0-7.413,0L.528,28.917a1.458,1.458,0,0,0-.194,2.054l3.1,3.767a1.458,1.458,0,0,0,2.055.2L34.071,11.393a1.481,1.481,0,0,1,1.859,0L64.515,34.936a1.458,1.458,0,0,0,2.054-.194l3.1-3.767a1.458,1.458,0,0,0-.207-2.057Z" transform="translate(0.001 -2.254)" fill="#707070"/>
</svg>
