<svg xmlns="http://www.w3.org/2000/svg" width="822.95" height="520.1" viewBox="0 0 822.95 520.1">
  <g id="undraw_Access_account_re_8spm" transform="translate(0 -0.001)" opacity="0.32">
    <path id="Path_1" data-name="Path 1" d="M299.2,705.809l-6.56-25.872A335.959,335.959,0,0,0,257,667.149l-.828,12.024-3.358-13.247c-15.021-4.294-25.24-6.183-25.24-6.183s13.8,52.489,42.754,92.617l33.734,5.926-26.207,3.779a135.929,135.929,0,0,0,11.719,12.422c42.115,39.092,89.024,57.028,104.773,40.06s-5.625-62.412-47.74-101.5c-13.056-12.119-29.457-21.844-45.875-29.5Z" transform="translate(-227.576 -303.439)" fill="#f2f2f2"/>
    <path id="Path_2" data-name="Path 2" d="M361.591,677.706l7.758-25.538a335.941,335.941,0,0,0-23.9-29.371l-6.924,9.865,3.972-13.076c-10.641-11.436-18.412-18.335-18.412-18.335S308.77,653.318,312.81,702.635l25.815,22.51-24.392-10.312a135.911,135.911,0,0,0,3.614,16.694c15.846,55.234,46.731,94.835,68.983,88.451s27.446-56.335,11.6-111.569c-4.912-17.123-13.926-33.926-24.023-48.965Z" transform="translate(-227.576 -303.439)" fill="#f2f2f2"/>
    <path id="Path_22" data-name="Path 22" d="M747.327,199.507h-4.092V121.571c0-24.913-29.049-45.109-64.883-45.109H440.845c-35.834,0-64.883,20.2-64.883,45.109V549.142c0,24.913,29.049,45.109,64.883,45.109H678.352c35.833,0,64.881-20.2,64.882-45.108V254.984h4.092Z" transform="translate(-196.546 -76.461)" fill="#e6e6e6"/>
    <path id="Path_23" data-name="Path 23" d="M680.97,93.335h-31c2.9,4.833,2.067,10.329-2.21,14.661s-11.44,6.93-19.106,6.929H492.589c-7.665,0-14.828-2.6-19.1-6.929s-5.1-9.828-2.21-14.661H442.319c-26.76,0-48.454,14.768-48.454,32.986V544.387c0,18.218,21.694,32.986,48.454,32.986H680.97c26.76,0,48.454-14.768,48.454-32.986h0V126.32c0-18.217-21.693-32.985-48.453-32.985Z" transform="translate(-195.844 -76.461)" fill="#fff"/>
    <path id="Path_6" data-name="Path 6" d="M531.234,337.965a24.439,24.439,0,0,1,12.234-21.176,24.45,24.45,0,1,0,0,42.347A24.434,24.434,0,0,1,531.234,337.965Z" transform="translate(-196.782 -153.526)" fill="#ccc"/>
    <path id="Path_7" data-name="Path 7" d="M561.971,337.965a24.438,24.438,0,0,1,12.234-21.177,24.45,24.45,0,1,0,0,42.348,24.434,24.434,0,0,1-12.23-21.171Z" transform="translate(-193.392 -153.526)" fill="#ccc"/>
    <circle id="Ellipse_1" data-name="Ellipse 1" cx="24.45" cy="24.45" r="24.45" transform="translate(378.138 159.987)" fill="#ffbf00"/>
    <path id="Path_8" data-name="Path 8" d="M632.872,414.331h-142.5a5.123,5.123,0,0,1-5.117-5.117v-142.5a5.123,5.123,0,0,1,5.117-5.117h142.5a5.123,5.123,0,0,1,5.117,5.117v142.5A5.123,5.123,0,0,1,632.872,414.331Zm-142.5-150.686a3.073,3.073,0,0,0-3.07,3.07v142.5a3.073,3.073,0,0,0,3.07,3.07h142.5a3.073,3.073,0,0,0,3.07-3.07v-142.5a3.073,3.073,0,0,0-3.07-3.07Z" transform="translate(-193.587 -147.164)" fill="#ccc"/>
    <rect id="Rectangle_1" data-name="Rectangle 1" width="218.552" height="2.047" transform="translate(250.997 310.89)" fill="#ccc"/>
    <circle id="Ellipse_2" data-name="Ellipse 2" cx="6.902" cy="6.902" r="6.902" transform="translate(241.912 290.351)" fill="#ffbf00"/>
    <rect id="Rectangle_2" data-name="Rectangle 2" width="218.552" height="2.047" transform="translate(250.997 358.88)" fill="#ccc"/>
    <circle id="Ellipse_3" data-name="Ellipse 3" cx="6.902" cy="6.902" r="6.902" transform="translate(241.912 338.005)" fill="#ffbf00"/>
    <path id="Path_1-2" data-name="Path 1" d="M660.69,671.172H591.622a4.5,4.5,0,0,1-4.5-4.5V642.464a4.5,4.5,0,0,1,4.5-4.5H660.69a4.5,4.5,0,0,1,4.5,4.5v24.208a4.5,4.5,0,0,1-4.5,4.5Z" transform="translate(-185.461 -254.993)" fill="#ffbf00"/>
    <circle id="Ellipse_7" data-name="Ellipse 7" cx="6.902" cy="6.902" r="6.902" transform="translate(266.832 290.351)" fill="#ffbf00"/>
    <circle id="Ellipse_8" data-name="Ellipse 8" cx="6.902" cy="6.902" r="6.902" transform="translate(291.751 290.351)" fill="#ffbf00"/>
    <circle id="Ellipse_9" data-name="Ellipse 9" cx="6.902" cy="6.902" r="6.902" transform="translate(266.832 338.005)" fill="#ffbf00"/>
    <circle id="Ellipse_10" data-name="Ellipse 10" cx="6.902" cy="6.902" r="6.902" transform="translate(291.751 338.005)" fill="#ffbf00"/>
    <path id="Path_88" data-name="Path 88" d="M1047.444,823.539H251.956c-1.7,0-3.082-.546-3.082-1.218s1.379-1.219,3.082-1.219h795.487c1.7,0,3.082.546,3.082,1.219S1049.145,823.539,1047.444,823.539Z" transform="translate(-227.576 -303.439)" fill="#3f3d56"/>
    <path id="Path_2-2" data-name="Path 2" d="M792.253,565.923a10.09,10.09,0,0,1,1.411.787l44.852-19.143,1.6-11.815,17.922-.11-1.059,27.1L797.78,578.4a10.619,10.619,0,0,1-.448,1.208,10.235,10.235,0,1,1-5.079-13.682Z" transform="translate(-157.915 -344.946)" fill="#ffb8b8"/>
    <path id="Path_3" data-name="Path 3" d="M636.98,735.021H624.72l-5.832-47.288h18.094Z" transform="translate(74.102 -242.977)" fill="#ffb8b8"/>
    <path id="Path_4" data-name="Path 4" d="M615.963,731.518h23.644V746.4H601.076A14.887,14.887,0,0,1,615.963,731.518Z" transform="translate(73.749 -246.977)" fill="#2f2e41"/>
    <path id="Path_5" data-name="Path 5" d="M695.985,744l-18.3,1.52L662.018,686.74l27.014-2.243Z" transform="translate(68.503 -260.977)" fill="#ffb8b8"/>
    <path id="Path_6-2" data-name="Path 6" d="M14.887,0H38.531V14.887H0A14.887,14.887,0,0,1,14.887,0Z" transform="translate(724.683 484.612) rotate(-5.625)" fill="#2f2e41"/>
    <circle id="Ellipse_1-2" data-name="Ellipse 1" cx="24.561" cy="24.561" r="24.561" transform="translate(690.934 78.936)" fill="#ffb8b8"/>
    <path id="Path_7-2" data-name="Path 7" d="M849.556,801.919a4.471,4.471,0,0,1-4.415-3.7c-6.346-35.226-27.088-150.4-27.584-153.6a1.432,1.432,0,0,1-.016-.222v-8.588a1.489,1.489,0,0,1,.279-.872l2.74-3.838a1.479,1.479,0,0,1,1.143-.625c15.622-.732,66.784-2.879,69.256.209h0c2.482,3.1,1.605,12.507,1.4,14.36l.01.193L915.36,792.239a4.512,4.512,0,0,1-3.715,5.135l-14.356,2.365a4.521,4.521,0,0,1-5.025-3.093c-4.44-14.188-19.329-61.918-24.489-80.387a.5.5,0,0,0-.98.139c.258,17.606.881,62.523,1.1,78.037l.023,1.671a4.518,4.518,0,0,1-4.093,4.536L849.976,801.9C849.836,801.914,849.7,801.919,849.556,801.919Z" transform="translate(-155.474 -354.439)" fill="#2f2e41"/>
    <path id="Path_99" data-name="Path 99" d="M852.381,495.254c-4.286,2.548-6.851,7.23-8.323,12a113.679,113.679,0,0,0-4.884,27.159l-1.556,27.6-19.255,73.17c16.689,14.121,26.315,10.911,48.781-.639s25.032,3.851,25.032,3.851l4.492-62.258,6.418-68.032a30.165,30.165,0,0,0-4.861-4.674,49.659,49.659,0,0,0-42.442-9Z" transform="translate(-158.474 -354.213)" fill="#ffbf00"/>
    <path id="Path_8-2" data-name="Path 8" d="M846.127,594.224c.518.271,1.5.978,1.5.978l12.42-8.634,31.928-22.194.736-16.7,18.294-1.752.98,38.071L872.8,594.224,852.72,611.211c-.991,5.9-4.508,10.337-8.833,11.139s-8.557-2.2-10.627-7.532a19.218,19.218,0,0,1,1.312-16.47c2.86-4.578,7.461-6.22,11.556-4.125Z" transform="matrix(0.998, -0.07, 0.07, 0.998, -189.091, -288.778)" fill="#ffb8b8"/>
    <path id="Path_101" data-name="Path 101" d="M902.66,508.633c10.862,4.5,12.776,53.224,12.776,53.224-12.779-8.245-28.114,5.247-28.114,5.247s-3.195-12.743-7.028-29.234a32.435,32.435,0,0,1,5.111-26.985S891.8,504.134,902.66,508.633Z" transform="matrix(0.998, 0.07, -0.07, 0.998, -112.744, -420.087)" fill="#ffbf00"/>
    <path id="Path_102" data-name="Path 102" d="M889.991,467.531c-3.06-2.448-7.235,2-7.235,2s4.437-16.372-2.448-22.034-15.3,1.833-25.094-.612-11.323,8.875-11.323,8.875a78.582,78.582,0,0,1-.306-13.771c.612-5.508,22.645-14.689,22.645-14.689l21.421,12.24C897.445,444.439,893.051,469.979,889.991,467.531Z" transform="translate(-149.474 -355.351)" fill="#2f2e41"/>
  </g>
</svg>
