<svg xmlns="http://www.w3.org/2000/svg" xmlns:xlink="http://www.w3.org/1999/xlink" width="275.485" height="100.144" viewBox="0 0 275.485 100.144">
  <defs>
    <filter id="Subtraction_1" x="0" y="0" width="73.806" height="95.07" filterUnits="userSpaceOnUse">
      <feOffset dx="3" dy="-3" input="SourceAlpha"/>
      <feGaussianBlur stdDeviation="1.5" result="blur"/>
      <feFlood flood-opacity="0.161"/>
      <feComposite operator="in" in2="blur"/>
      <feComposite in="SourceGraphic"/>
    </filter>
    <filter id="Path_520" x="57.516" y="61.132" width="47.121" height="39.013" filterUnits="userSpaceOnUse">
      <feOffset dy="5" input="SourceAlpha"/>
      <feGaussianBlur stdDeviation="3" result="blur-2"/>
      <feFlood flood-opacity="0.161"/>
      <feComposite operator="in" in2="blur-2"/>
      <feComposite in="SourceGraphic"/>
    </filter>
  </defs>
  <g id="Group_50" data-name="Group 50" transform="translate(-24.5 -399.5)">
    <g id="Notes_Icon_group" data-name="Notes Icon group" transform="translate(26 407)">
      <g transform="matrix(1, 0, 0, 1, -1.5, -7.5)" filter="url(#Subtraction_1)">
        <path id="Subtraction_1-2" data-name="Subtraction 1" d="M64.806,86.07H0V0H47.986l16.82,16.82V86.07Z" transform="translate(1.5 7.5)" fill="#ece2c0"/>
      </g>
      <path id="Path_530" data-name="Path 530" d="M1269.043-1454h-16.876l16.876,4.649Z" transform="translate(-1204.181 1470.876)" fill="#c8c2af"/>
    </g>
    <g id="pencil_group" data-name="pencil group" transform="translate(248.549 433.972)">
      <path id="Icon_awesome-pen" data-name="Icon awesome-pen" d="M16.216,4.889,12.895,1.478a4.926,4.926,0,0,0-7.036,0L0,7.421,10.358,17.97l5.859-5.943A5.1,5.1,0,0,0,16.216,4.889Z" transform="translate(31.433 2.46) rotate(-8)" fill="#ffbf00"/>
      <path id="Icon_awesome-pen-2" data-name="Icon awesome-pen" d="M31.774,0,42.131,10.549,13.33,39.765,1.529,42.6c-1.583.178-1.635.221-1.459-1.385L2.982,29.2,31.774,0Z" transform="translate(0 15.598) rotate(-8)" fill="#707070"/>
      <path id="Icon_awesome-pen-3" data-name="Icon awesome-pen" d="M2.386,2.058l-.851.207C-.048,2.442-.108,2.493.068.888L.284,0Z" transform="translate(5.608 55.545) rotate(-8)" fill="#ffbf00"/>
    </g>
    <g id="Possbile_letter_group" data-name="Possbile letter group" transform="translate(43.417 427.249)">
      <path id="Path_519" data-name="Path 519" d="M260.43,47.264q-3.184,6.07-8.957,6.07a7.861,7.861,0,0,1-6.389-3.056,12.4,12.4,0,0,1-2.483-8.065q0-9.721,8.363-17.426a29.032,29.032,0,0,1,20.418-7.7q7.853,0,12.523,3.905a12.649,12.649,0,0,1,4.669,10.188,16.845,16.845,0,0,1-3.566,10.23,18.2,18.2,0,0,1-9.976,6.622l-.34-1.273q8.872-3.444,8.872-13.35a13.369,13.369,0,0,0-4.033-10.14q-4.033-3.848-10.782-3.848a22.715,22.715,0,0,0-15.664,5.972,18.566,18.566,0,0,0-6.665,14.3,10.758,10.758,0,0,0,2.25,7.121,6.656,6.656,0,0,0,5.221,2.7q3.778,0,5.306-2.759Zm14.56-23.007q-3.566,4.163-3.566,11.428a62.976,62.976,0,0,0,1,8.115,62.738,62.738,0,0,1,1.041,10.324q0,9.474-4.818,15.252a15.127,15.127,0,0,1-12.119,5.778,12.591,12.591,0,0,1-8.639-2.971,9.228,9.228,0,0,1-3.375-7.174V63.862l5.771-1.316.257.552a6.246,6.246,0,0,0-.934,3.4,6.339,6.339,0,0,0,2.181,4.818,7.711,7.711,0,0,0,5.443,2.016,9.383,9.383,0,0,0,7.9-4.1q3.028-4.1,3.028-11.365a93.013,93.013,0,0,0-.722-10.112q-.679-6.288-.679-8.327a19.885,19.885,0,0,1,1.641-8.157,28.225,28.225,0,0,1,5.533-7.775Z" transform="translate(-242.602 -17.082)" fill="#707070"/>
      <g transform="matrix(1, 0, 0, 1, -18.92, -27.75)" filter="url(#Path_520)">
        <path id="Path_520-2" data-name="Path 520" d="M247.558,73.117q5.518-7.88,9.042-10.18a13.307,13.307,0,0,1,7.386-2.3,8.171,8.171,0,0,1,5.794,1.957,7.074,7.074,0,0,1,2.1,5.445,12.77,12.77,0,0,1-3.99,9.082,12.576,12.576,0,0,1-9.3,4.105,7.429,7.429,0,0,1-5.5-2.059,7.1,7.1,0,0,1-2.059-5.243,16.665,16.665,0,0,1,.255-3.056,36.555,36.555,0,0,0-2.335,3.311Zm13.8,5.306a6.293,6.293,0,0,0,5.136-2.335,9.484,9.484,0,0,0,1.91-6.2,7.334,7.334,0,0,0-1.783-5.243,6.177,6.177,0,0,0-4.712-1.889,6.07,6.07,0,0,0-4.945,2.25,9.638,9.638,0,0,0-1.847,6.283Q255.114,78.423,261.354,78.423Zm15.324-5.052q-3.4,4.839-6.41,6.389a17.412,17.412,0,0,1-6.028,1.889l-.34-.976a18.022,18.022,0,0,0,11.377-8.32Z" transform="translate(-181.04 4.49)" fill="#707070"/>
      </g>
      <path id="Path_521" data-name="Path 521" d="M262.087,59.692c1.5,1.463,2.182,1.572,3.512,3.751a12.523,12.523,0,0,1,2,6.58A10.767,10.767,0,0,1,265.28,76.9a7.22,7.22,0,0,1-5.922,2.929A7.873,7.873,0,0,1,255.5,78.64a10.807,10.807,0,0,1-3.608-3.481,10.906,10.906,0,0,1,3.82-3.481l.34.424a6.718,6.718,0,0,0-.085,1.231,4.744,4.744,0,0,0,1.267,3.247A3.776,3.776,0,0,0,260.1,78a3.907,3.907,0,0,0,3.253-1.677,6.807,6.807,0,0,0,1.267-4.224q0-5.264-6.24-9.381l-3.608,5.688a51.23,51.23,0,0,1-3.141,4.669l-1.316-1.061c2.887-4.273,6.87-17.589,8.172-18.714s2.566-1.507,3.736-.482a4.17,4.17,0,0,1,.942,4.58C262.466,58.829,262.087,59.692,262.087,59.692ZM274.81,72.273q-4.542,7.471-11.461,8.108l-.255-.807a13.26,13.26,0,0,0,5.2-2.4,30.984,30.984,0,0,0,5.243-5.922Z" transform="translate(-175.383 -22.491)" fill="#707070"/>
      <path id="Path_522" data-name="Path 522" d="M264.772,50.127,261.8,53.905l-3.014-3.778,3.014-3.651Zm7.3,21.395a22.958,22.958,0,0,1-4.967,5.6,7.861,7.861,0,0,1-4.585,1.953q-2.292,0-2.887-1.231a10.983,10.983,0,0,1-.594-4.33V65.791a25.9,25.9,0,0,1-3.82,6.537l-1.316-1.061a29.931,29.931,0,0,0,5.136-10.612l4.245-2.25V71.861a14.688,14.688,0,0,0,.233,3.311,1.08,1.08,0,0,0,1.167.807q1.91,0,6.155-5.561Z" transform="translate(-134.112 -21.265)" fill="#707070"/>
      <path id="Path_523" data-name="Path 523" d="M256.965,60.056a10.146,10.146,0,0,1,8.32-4.457,5.785,5.785,0,0,1,4.521,1.974,7.332,7.332,0,0,1,1.762,5.073,14.009,14.009,0,0,1-3.714,9.318q-3.714,4.309-8.3,4.309a6.623,6.623,0,0,1-5.243-2.144,8.921,8.921,0,0,1-1.889-6.092V61.669a35.048,35.048,0,0,1-4.245,7.6l-1.231-1.146a58.031,58.031,0,0,0,3.927-7.259,38.931,38.931,0,0,0,1.549-3.693V41.42q0-7.344,3.184-11.886t7.344-4.542a4.44,4.44,0,0,1,3.46,1.486,5.494,5.494,0,0,1,1.337,3.82q0,3.311-2.441,8.787a175.715,175.715,0,0,1-8.341,15.579Zm0-8.872a105.818,105.818,0,0,0,6.3-12.416,20,20,0,0,0,1.507-7.034,5.716,5.716,0,0,0-.891-3.348,2.731,2.731,0,0,0-2.335-1.271q-2.08,0-3.332,2.415a14.059,14.059,0,0,0-1.252,6.441Zm0,17.617q0,5.646,3.82,5.646,2.589,0,4.776-2.717a9.914,9.914,0,0,0,2.186-6.41,7.539,7.539,0,0,0-1.4-4.818A4.446,4.446,0,0,0,262.7,58.74a5.08,5.08,0,0,0-4.181,1.931,7.831,7.831,0,0,0-1.549,2.314Zm20.588-.085q-4.669,7.386-12.438,8.278l-.34-.976q6.834-1.528,11.461-8.32Z" transform="translate(-110.201 -18.907)" fill="#707070"/>
      <path id="Path_524" data-name="Path 524" d="M253.905,68.537q.807-1.146,1.465-2.144t1.337-2.292a35.67,35.67,0,0,0,1.507-3.4,10.088,10.088,0,0,0,.828-2.78V41.5a17.5,17.5,0,0,1,3.82-10.994q3.82-4.924,7.981-4.924a4.229,4.229,0,0,1,3.46,1.528,6.232,6.232,0,0,1,1.252,4.075q0,3.4-2.8,9.148a170.793,170.793,0,0,1-9.466,16.11V68.707a19.7,19.7,0,0,0,.212,3.587,1.058,1.058,0,0,0,1.1.955q1.91,0,6.155-5.561l1.316,1.1q-5.052,7.556-10.018,7.556a2.659,2.659,0,0,1-2.25-1q-.764-1-.764-4.563V63.061a25.9,25.9,0,0,1-3.82,6.537Zm9.381-15.2a124.255,124.255,0,0,0,7.492-13.563,19.174,19.174,0,0,0,1.8-7.323q0-4.754-2.929-4.754-2.674,0-4.521,3.014a15.616,15.616,0,0,0-1.847,8.193Z" transform="translate(-88.639 -18.623)" fill="#707070"/>
      <path id="Path_525" data-name="Path 525" d="M274.81,73.34a17.644,17.644,0,0,1-5.476,5.922,14.638,14.638,0,0,1-7.811,1.847,7.457,7.457,0,0,1-5.582-2.1,8.1,8.1,0,0,1-2.059-5.922,14.805,14.805,0,0,1,.17-2.165q-1.528,1.953-2.335,3.141l-1.4-.976q5.518-7.811,8.49-10.252a9.561,9.561,0,0,1,6.113-2.441,4.105,4.105,0,0,1,2.865,1.019,3.388,3.388,0,0,1,1.125,2.632q0,5.518-9.721,10.867,1.316,3.056,5.476,3.056a8.893,8.893,0,0,0,4.436-1.443,14.92,14.92,0,0,0,4.436-4.2Zm-16.428-.085q7.047-3.438,7.047-7.641a3.058,3.058,0,0,0-.7-2.08,2.374,2.374,0,0,0-1.889-.807,4.42,4.42,0,0,0-3.651,2,7.8,7.8,0,0,0-1.486,4.8,8.575,8.575,0,0,0,.34,2.589A8.332,8.332,0,0,1,258.382,73.255Z" transform="translate(-68.972 -23.01)" fill="#707070"/>
      <path id="Path_526" data-name="Path 526" d="M262.087,59.692c1.5,1.463,2.182,1.572,3.512,3.751a12.523,12.523,0,0,1,2,6.58A10.767,10.767,0,0,1,265.28,76.9a7.22,7.22,0,0,1-5.922,2.929A7.873,7.873,0,0,1,255.5,78.64a10.807,10.807,0,0,1-3.608-3.481,10.906,10.906,0,0,1,3.82-3.481l.34.424a6.718,6.718,0,0,0-.085,1.231,4.744,4.744,0,0,0,1.267,3.247A3.776,3.776,0,0,0,260.1,78a3.907,3.907,0,0,0,3.253-1.677,6.807,6.807,0,0,0,1.267-4.224q0-5.264-6.24-9.381l-3.608,5.688a51.23,51.23,0,0,1-3.141,4.669l-1.316-1.061c2.887-4.273,6.87-17.589,8.172-18.714s2.566-1.507,3.736-.482a4.17,4.17,0,0,1,.942,4.58C262.466,58.829,262.087,59.692,262.087,59.692ZM274.81,72.273q-4.542,7.471-11.461,8.108l-.255-.807a13.26,13.26,0,0,0,5.2-2.4,30.984,30.984,0,0,0,5.243-5.922Z" transform="translate(-152.779 -22.491)" fill="#707070"/>
      <path id="Path_532" data-name="Path 532" d="M274.354,50.127l-2.971,3.778-3.014-3.778,3.014-3.651Z" transform="translate(-143.693 -21.265)" fill="#ffbf00"/>
    </g>
    <path id="Path_531" data-name="Path 531" d="M0,0S15.835,6.382,47.843,7.64,82.273,5.063,114.264,5.8a478.455,478.455,0,0,1,61.545,5.787S156.922,6.767,123.935,5.09,85.5,6.808,53.494,6.808,0,0,0,0Z" transform="matrix(0.999, -0.035, 0.035, 0.999, 78.185, 486.754)" fill="#ffbf00" stroke="#ffbf00" stroke-width="1"/>
    <g id="Group_47" data-name="Group 47" transform="translate(31.231 415.944)">
      <line id="Line_4" data-name="Line 4" x2="50.629" transform="translate(0)" fill="none" stroke="rgba(112,112,112,0.25)" stroke-width="1"/>
      <line id="Line_5" data-name="Line 5" x2="50.629" transform="translate(0 6.751)" fill="none" stroke="rgba(112,112,112,0.25)" stroke-width="1"/>
      <line id="Line_6" data-name="Line 6" x2="50.629" transform="translate(0 12.826)" fill="none" stroke="rgba(112,112,112,0.25)" stroke-width="1"/>
      <line id="Line_7" data-name="Line 7" x2="50.629" transform="translate(0 19.577)" fill="none" stroke="rgba(112,112,112,0.25)" stroke-width="1"/>
      <line id="Line_8" data-name="Line 8" x2="50.629" transform="translate(0 26.327)" fill="none" stroke="rgba(112,112,112,0.25)" stroke-width="1"/>
      <line id="Line_9" data-name="Line 9" x2="50.629" transform="translate(0 33.078)" fill="none" stroke="rgba(112,112,112,0.25)" stroke-width="1"/>
      <line id="Line_10" data-name="Line 10" x2="50.629" transform="translate(0 39.828)" fill="none" stroke="rgba(112,112,112,0.25)" stroke-width="1"/>
      <line id="Line_11" data-name="Line 11" x2="50.629" transform="translate(0 46.579)" fill="none" stroke="rgba(112,112,112,0.25)" stroke-width="1"/>
      <line id="Line_12" data-name="Line 12" x2="50.629" transform="translate(0 53.329)" fill="none" stroke="rgba(112,112,112,0.25)" stroke-width="1"/>
      <line id="Line_13" data-name="Line 13" x2="50.629" transform="translate(0 60.08)" fill="none" stroke="rgba(112,112,112,0.25)" stroke-width="1"/>
      <line id="Line_14" data-name="Line 14" x2="50.629" transform="translate(0 66.831)" fill="none" stroke="rgba(112,112,112,0.25)" stroke-width="1"/>
    </g>
    <path id="page_corner" data-name="page corner" d="M1252.167-1437.124h16.876L1252.167-1454Z" transform="translate(-1178.182 1861)" fill="#fefbf1"/>
  </g>
</svg>
