<svg xmlns="http://www.w3.org/2000/svg" width="822.945" height="520.099" viewBox="0 0 822.945 520.099">
  <g id="undraw_Login_re_4vu2" opacity="0.1">
    <path id="Path_475" data-name="Path 475" d="M1018.588,704.187c11.138-9.412,17.9-24.28,16.13-38.754s-12.764-27.78-27.018-30.854-30.5,5.435-34.834,19.359c-2.383-26.846-5.129-54.818-19.4-77.68-12.924-20.7-35.309-35.514-59.569-38.164s-49.8,7.359-64.933,26.507-18.835,46.985-8.238,68.969c7.806,16.195,22.188,28.247,37.257,38.052A240.451,240.451,0,0,0,1022.435,707.6Z" transform="translate(-814.681 -189.931)" fill="#f2f2f2"/>
    <path id="Path_476" data-name="Path 476" d="M883.985,546.01a396.755,396.755,0,0,1,116.578,157.636c1.112,2.725-3.313,3.911-4.412,1.216a392.343,392.343,0,0,0-115.4-155.618c-2.284-1.86.97-5.08,3.236-3.235Z" transform="translate(-845.714 -189.931)" fill="#fff"/>
    <path id="Path_478" data-name="Path 478" d="M372.419,484.373a540.349,540.349,0,0,0-75.3,74.777A541.923,541.923,0,0,0,212.3,700.886c-1.527,3.743,4.55,5.372,6.06,1.671a538.882,538.882,0,0,1,158.5-213.74c3.138-2.555-1.332-6.978-4.444-4.444Z" transform="translate(445.014 -189.931)" fill="#fff"/>
    <path id="Path_479" data-name="Path 479" d="M424.5,708.931h365v-374.5c0-79.678-64.822-144.5-144.5-144.5H569c-79.677,0-144.5,64.822-144.5,144.5Z" transform="translate(-179.001 -189.931)" fill="#f2f2f2"/>
    <path id="Path_480" data-name="Path 480" d="M424.5,708.931h289v-374.5a143.382,143.382,0,0,0-27.6-84.944c-.664-.9-1.326-1.8-2.009-2.681a144.468,144.468,0,0,0-30.754-29.851c-.66-.48-1.322-.952-1.994-1.423a144.158,144.158,0,0,0-31.472-16.459c-.661-.25-1.334-.5-2.007-.742a144.021,144.021,0,0,0-31.108-7.336c-.658-.09-1.333-.16-2.008-.23a146.288,146.288,0,0,0-31.105,0c-.673.07-1.349.141-2.014.231a143.992,143.992,0,0,0-31.1,7.335c-.673.241-1.346.492-2.009.743a143.8,143.8,0,0,0-31.106,16.216c-.672.461-1.344.933-2.006,1.4a145.991,145.991,0,0,0-18.383,15.564A144.291,144.291,0,0,0,454.1,246.809c-.681.88-1.343,1.773-2.005,2.677a143.382,143.382,0,0,0-27.6,84.946Z" transform="translate(-103.001 -189.931)" fill="#ccc"/>
    <ellipse id="Ellipse_34" data-name="Ellipse 34" cx="16" cy="16" rx="16" ry="16" transform="translate(328.999 319.5)" fill="#ffbf00"/>
    <path id="Path_481" data-name="Path 481" d="M576.508,507.783h12.26l5.833-47.288h-18.1Z" transform="translate(-301.108 0)" fill="#ffb8b8"/>
    <path id="Path_482" data-name="Path 482" d="M582.339,504.28H558.695v14.887h38.531a14.887,14.887,0,0,0-14.887-14.887Z" transform="translate(-285.921 0)" fill="#2f2e41"/>
    <path id="Path_483" data-name="Path 483" d="M637.508,507.783h12.26l5.833-47.288h-18.1Z" transform="translate(-423.108 0)" fill="#ffb8b8"/>
    <path id="Path_484" data-name="Path 484" d="M643.339,504.28H619.695v14.887h38.531a14.887,14.887,0,0,0-14.887-14.887Z" transform="translate(-407.921 0)" fill="#2f2e41"/>
    <path id="Path_485" data-name="Path 485" d="M762.937,528.6a10.743,10.743,0,0,0-4.51-15.843L716.751,397.89l-20.507,11.192,47.585,109.771a10.8,10.8,0,0,0,19.109,9.748Z" transform="translate(-426.036 -189.931)" fill="#ffb8b8"/>
    <path id="Path_486" data-name="Path 486" d="M814.767,550.184a10.743,10.743,0,0,0,2.893-16.217l12.91-121.509-23.338,1.066-5.365,119.521a10.8,10.8,0,0,0,12.9,17.139Z" transform="translate(-594.104 -189.931)" fill="#ffb8b8"/>
    <ellipse id="Ellipse_35" data-name="Ellipse 35" cx="24.561" cy="24.561" rx="24.561" ry="24.561" transform="translate(233.332 137.562)" fill="#ffb8b8"/>
    <path id="Path_487" data-name="Path 487" d="M747.874,522.549h74.047l-.089-.576c-.133-.861-13.2-86.439-3.562-114.436a11.813,11.813,0,0,0-6.069-14.583h0c-13.772-6.485-40.208-14.471-62.52,4.909a28.235,28.235,0,0,0-9.459,23.4Z" transform="translate(-527.055 -189.931)" fill="#ffbf00"/>
    <path id="Path_488" data-name="Path 488" d="M730.862,448.181l33.336-6.763-15.626-37.03a14,14,0,1,0-27.106,7Z" transform="translate(-450.216 -189.931)" fill="#ffbf00"/>
    <path id="Path_489" data-name="Path 489" d="M827.886,460.739l2-45.941c1.52-8.636-3.424-16.8-11.027-18.135s-15.032,4.66-16.558,13.36l-7.533,42.928Z" transform="translate(-589.936 -189.931)" fill="#ffbf00"/>
    <path id="Path_490" data-name="Path 490" d="M747.653,517.049c-11.914,45.377-13.214,103.069-10,166l16-2,29-120,16,122,18-1c5.377-66.03,10.613-122.715,2-160Z" transform="translate(-524.37 -189.931)" fill="#2f2e41"/>
    <path id="Path_491" data-name="Path 491" d="M759.351,371.035c4.582,4.881,13.091,2.261,13.688-4.407a8.049,8.049,0,0,0-.01-1.556c-.308-2.954-2.015-5.635-1.606-8.754a4.59,4.59,0,0,1,.84-2.149c3.651-4.889,12.222,2.187,15.668-2.239,2.113-2.714-.371-6.987,1.251-10.021,2.14-4,8.479-2.029,12.454-4.221,4.423-2.439,4.158-9.225,1.247-13.353-3.551-5.034-9.776-7.72-15.923-8.107s-12.253,1.275-17.992,3.511c-6.521,2.541-12.988,6.054-17,11.788-4.88,6.973-5.35,16.348-2.909,24.5C750.542,360.99,755.609,367.049,759.351,371.035Z" transform="translate(-517.64 -189.931)" fill="#2f2e41"/>
    <path id="Path_492" data-name="Path 492" d="M266.686,709.574H1004.98a1.191,1.191,0,1,0,0-2.381H266.686a1.191,1.191,0,1,0,0,2.381Z" transform="translate(-236.667 -189.931)" fill="#3f3d56"/>
    <path id="Path_493" data-name="Path 493" d="M504,600.431H634a6.465,6.465,0,0,0,6.5-6.415V303.846a6.465,6.465,0,0,0-6.5-6.415H504a6.465,6.465,0,0,0-6.5,6.415V594.015A6.465,6.465,0,0,0,504,600.431Z" transform="translate(-103.001 -189.931)" fill="#fff"/>
    <rect id="Rectangle_43" data-name="Rectangle 43" width="143" height="2" transform="translate(394.499 201.39)" fill="#ccc"/>
    <rect id="Rectangle_44" data-name="Rectangle 44" width="143" height="2" transform="translate(393.999 315.5)" fill="#ccc"/>
    <rect id="Rectangle_45" data-name="Rectangle 45" width="2" height="304" transform="translate(490.499 107.5)" fill="#ccc"/>
    <rect id="Rectangle_46" data-name="Rectangle 46" width="2" height="304" transform="translate(440.499 107.5)" fill="#ccc"/>
  </g>
</svg>
