<svg xmlns="http://www.w3.org/2000/svg" xmlns:xlink="http://www.w3.org/1999/xlink" width="735.363" height="612.523" viewBox="0 0 735.363 612.523">
  <defs>
    <linearGradient id="linear-gradient" x1="0.5" y1="1" x2="0.5" gradientUnits="objectBoundingBox">
      <stop offset="0" stop-color="gray" stop-opacity="0.251"/>
      <stop offset="0.54" stop-color="gray" stop-opacity="0.122"/>
      <stop offset="1" stop-color="gray" stop-opacity="0.102"/>
    </linearGradient>
  </defs>
  <g id="undraw_book_lover_mkck" transform="translate(0 -0.008)">
    <path id="Path_116" data-name="Path 116" d="M523.583,153.353c-46.53-1.695-90.852-17.43-133.169-34.65S306.183,82.4,260.768,73.281c-29.211-5.868-62.62-6.7-86.151,9.71-22.654,15.818-29.973,43.049-33.905,68.343-2.962,19.027-4.7,39.049,3.415,56.864,5.629,12.369,15.63,22.764,22.539,34.65,24.063,41.218,7.06,92.048-19.016,132.295-12.222,18.884-26.421,36.91-35.854,56.992s-13.8,43.124-5.55,63.628c8.189,20.338,27.694,35.584,48.816,46.318,42.914,21.807,93.462,28.044,142.789,31.577,109.157,7.826,218.889,4.437,328.333,1.047,40.505-1.258,81.183-2.531,121.026-9.092,22.129-3.646,44.97-9.423,61.038-23.389,20.389-17.724,25.443-47.742,11.784-69.963-22.927-37.279-86.273-46.536-102.32-86.55-8.814-22.018.244-46.544,13.056-66.972,27.492-43.81,73.569-82.248,76-132.325,1.668-34.4-20.49-68.84-54.74-85.118-35.9-17.122-85.69-14.952-112.162,13.287C612.588,143.681,564.664,154.844,523.583,153.353Z" transform="translate(-92.32 -49.838)" fill="#ffbf00" opacity="0.1"/>
    <path id="Path_117" data-name="Path 117" d="M329.69,618.348,83.611,617.09,59.16,557l86.46-6.576-15.069-65.88,171.007-23.223L137.8,401.681l14.465-3.6,263.312,45.007L401.081,545.9l-20.727,56.5Z" transform="translate(-16.627 -98.22)" fill="#ffbf00"/>
    <path id="Path_118" data-name="Path 118" d="M187,698.759s15.1-2.531,24.156,8.647c0,0-6.643,5.484-20.936-2.109Z" transform="translate(-116.242 -205.056)" fill="#ffbf00"/>
    <path id="Path_119" data-name="Path 119" d="M182.375,698.51s-9.634,12.421-4.889,26.251c0,0,7.851-3.292,8.706-20.059Z" transform="translate(-113.199 -205.055)" fill="#ffbf00"/>
    <path id="Path_120" data-name="Path 120" d="M172.76,670.084s6.039-11.608,30.2,4.64c0,0-3.221,7.8-13.89,7.171S175.578,676.2,172.76,670.084Z" transform="translate(-112.24 -197.05)" fill="#ffbf00"/>
    <path id="Path_121" data-name="Path 121" d="M165.216,670.286s-12.531-1.507-13.746,28.548c0,0,7.944,1.725,13.588-7.781S168.387,676.214,165.216,670.286Z" transform="translate(-106.256 -198.088)" fill="#ffbf00"/>
    <path id="Path_122" data-name="Path 122" d="M160.44,634.814s7.046-20.459,32.611-5.906c0,0-5.838,18.771-29.994,12.866Z" transform="translate(-108.777 -186.592)" fill="#ffbf00"/>
    <path id="Path_123" data-name="Path 123" d="M149.52,594.7s13.286-20.669,36.839-1.506c0,0-8.253,19.4-34.826,8.858Z" transform="translate(-105.708 -177.06)" fill="#ffbf00"/>
    <path id="Path_124" data-name="Path 124" d="M145.6,556.455s15.5-18.99,38.823,0c0,0-14.7,16.662-38.823,4.851Z" transform="translate(-104.606 -167.922)" fill="#ffbf00"/>
    <path id="Path_125" data-name="Path 125" d="M142.24,518.7s15.7-19.826,38.046-1.055c0,0-17.715,17.506-38.046,5.695Z" transform="translate(-103.662 -158.435)" fill="#ffbf00"/>
    <path id="Path_126" data-name="Path 126" d="M144.2,483.706s16.536-25.52,37.442-8.226c0,0-17.715,21.935-37.442,13.077Z" transform="translate(-104.213 -148.541)" fill="#ffbf00"/>
    <path id="Path_127" data-name="Path 127" d="M149.52,445.118s17.513-25.31,37.845-5.906c0,0-20.734,21.935-37.845,10.546Z" transform="translate(-105.708 -139.27)" fill="#ffbf00"/>
    <path id="Path_128" data-name="Path 128" d="M157.286,409.241s20.734-23.788,38.823-14.312c0,0-21.6,25.264-39.729,20.624Z" transform="translate(-107.636 -129.599)" fill="#ffbf00"/>
    <path id="Path_129" data-name="Path 129" d="M167.057,374.672s23.926-29.136,37.845-19.4c0,0-17.628,22.6-39.542,24.858Z" transform="translate(-110.16 -119.873)" fill="#ffbf00"/>
    <path id="Path_130" data-name="Path 130" d="M181.171,337.264s20.943-23.788,36.242-17.882c0,0-17.916,24.677-39.053,25.31Z" transform="translate(-113.814 -111.276)" fill="#ffbf00"/>
    <path id="Path_131" data-name="Path 131" d="M195.047,301.346s23.15-22.779,33.215-18.771c0,0-16.708,25.31-34.222,23.833Z" transform="translate(-118.221 -102.311)" fill="#ffbf00"/>
    <path id="Path_132" data-name="Path 132" d="M208.32,266.348s19.929-27.215,30.807-25.106c0,0-12.085,24.263-30.807,27.871Z" transform="translate(-122.234 -92.2)" fill="#ffbf00"/>
    <path id="Path_133" data-name="Path 133" d="M222.016,223.243s17.614-20.858,27.133-20.813c0,0-13.9,27.871-27.859,27.614Z" transform="translate(-125.879 -82.652)" fill="#ffbf00"/>
    <path id="Path_134" data-name="Path 134" d="M229.734,186.168l17.017-43.448s.848,39.275-19.181,51.508Z" transform="translate(-127.644 -67.919)" fill="#ffbf00"/>
    <path id="Path_135" data-name="Path 135" d="M240.145,123.937s2.818-36.285,1.007-39.237c0,0,12.164,30.168-1.122,55.267Z" transform="translate(-131.146 -53.604)" fill="#ffbf00"/>
    <path id="Path_136" data-name="Path 136" d="M148.157,637.061S130.514,625.6,119.09,653.632c0,0,15.7,10.922,31.145-9.423Z" transform="translate(-97.155 -189.321)" fill="#ffbf00"/>
    <path id="Path_137" data-name="Path 137" d="M136.167,595.729s-21.64-10.342-32.137,18.922c0,0,16.715,12.052,34.107-11.525Z" transform="translate(-92.922 -179.257)" fill="#ffbf00"/>
    <path id="Path_138" data-name="Path 138" d="M129.023,558.765s-15.5-18.99-38.823,0c0,0,14.7,16.662,38.823,4.851Z" transform="translate(-89.035 -168.492)" fill="#ffbf00"/>
    <path id="Path_139" data-name="Path 139" d="M126.626,518.7s-15.7-19.826-38.046-1.055c0,0,17.715,17.506,38.046,5.695Z" transform="translate(-88.58 -158.435)" fill="#ffbf00"/>
    <path id="Path_140" data-name="Path 140" d="M130.535,482.987S119.521,454.4,95.58,466.694c0,0,12.941,25.347,33.977,21.039Z" transform="translate(-90.547 -147.099)" fill="#ffbf00"/>
    <path id="Path_141" data-name="Path 141" d="M137.678,442.982s-10.949-29.083-35.228-15.6c0,0,14.868,26.658,34.15,20.09Z" transform="translate(-92.478 -137.277)" fill="#ffbf00"/>
    <path id="Path_142" data-name="Path 142" d="M151.334,403.47s-4.314-31.885-24.444-34.74c0,0,4.271,33.625,21.734,40.488Z" transform="translate(-99.347 -123.685)" fill="#ffbf00"/>
    <path id="Path_143" data-name="Path 143" d="M161.266,368.737s-1.682-38.416-18.326-39.757c0,0,.561,29.159,16.449,45.2Z" transform="translate(-103.858 -113.877)" fill="#ffbf00"/>
    <path id="Path_144" data-name="Path 144" d="M176.519,330.258s-4.961-31.946-20.849-35.848c0,0,1.97,30.936,19.275,43.689Z" transform="translate(-107.436 -105.347)" fill="#ffbf00"/>
    <path id="Path_145" data-name="Path 145" d="M193.661,295.5s-.165-33.279-9.871-38.168c0,0-6.018,30.13,7.06,42.416Z" transform="translate(-114.951 -96.198)" fill="#ffbf00"/>
    <path id="Path_146" data-name="Path 146" d="M204.734,261.3s-1.359-34.266-11.41-39.094c0,0-3.437,27.117,9.907,41.339Z" transform="translate(-117.908 -87.533)" fill="#ffbf00"/>
    <path id="Path_147" data-name="Path 147" d="M220.506,222.419s-.058-27.871-7.233-34.409c0,0-7.132,30.53,3.487,40.013Z" transform="translate(-122.968 -79.094)" fill="#ffbf00"/>
    <path id="Path_148" data-name="Path 148" d="M225.638,183.386,218.657,137s-9.483,38.009,7.312,54.762Z" transform="translate(-124.39 -66.508)" fill="#ffbf00"/>
    <path id="Path_149" data-name="Path 149" d="M224.437,126.02s-17.916-31.185-17.549-34.65c0,0,1.905,32.684,24.444,48.962Z" transform="translate(-121.83 -55.249)" fill="#ffbf00"/>
    <path id="Path_150" data-name="Path 150" d="M224.619,109.457S207.71,65.166,200.06,61.58c0,0,24.156,12.866,25.968,46.612Z" transform="translate(-119.912 -47.899)" fill="#ffbf00"/>
    <path id="Path_151" data-name="Path 151" d="M220.717,210.31l-1.157-.369c14.271-48.759,17.83-79.846,10.029-87.642l.827-.919C238.691,129.606,235.334,160.354,220.717,210.31Z" transform="translate(-125.393 -62.654)" fill="#444053"/>
    <path id="Path_152" data-name="Path 152" d="M165.841,352.437l-1.711-.64c1.517-4.467,3.149-9,4.86-13.468,14.9-38.9,27.579-75.085,35.71-102.865l1.488-.753c-8.146,27.833-20.6,65.406-35.516,104.357C168.968,343.451,167.344,347.963,165.841,352.437Z" transform="translate(-109.814 -90.617)" fill="#444053"/>
    <path id="Path_153" data-name="Path 153" d="M195.02,657.985c-.23-.264-23.358-27.554-39.484-74.143a285.9,285.9,0,0,1-15.579-84.953c-1.107-36.255,6.154-76.735,18.592-113.509l1.352,1.657c-27.924,82.535-16.83,153.258-2.114,195.848,15.953,46.167,38.823,73.157,39.046,73.428Z" transform="translate(-102.989 -127.793)" fill="#444053"/>
    <path id="Path_154" data-name="Path 154" d="M660,670.36s-16.3,20.843-3.357,52.352L526.51,781.842l-12.488,2.742L508.27,758.22l3.846-33.271V706.765Z" transform="translate(-206.538 -198.109)" fill="#d5d6db"/>
    <path id="Path_155" data-name="Path 155" d="M59.16,597.791l180.109-34.4,238.652,39.832L329.69,659.137Z" transform="translate(-16.627 -139.009)" fill="#ffbf00"/>
    <path id="Path_156" data-name="Path 156" d="M59.16,597.791l180.109-34.4,238.652,39.832L329.69,659.137Z" transform="translate(-16.627 -139.009)" fill="#ffbf00"/>
    <path id="Path_157" data-name="Path 157" d="M145.089,652.47s-16.845,33.437,2.567,64.321l267.086,60.637s-16.579-26.635.856-63.605Z" transform="translate(-102.557 -193.695)" fill="#ffbf00"/>
    <path id="Path_158" data-name="Path 158" d="M145.089,652.47s-16.845,33.437,2.567,64.321l267.086,60.637s-16.579-26.635.856-63.605Z" transform="translate(-102.557 -193.695)" opacity="0.1"/>
    <path id="Path_159" data-name="Path 159" d="M157.137,667.86s-9.627,24.466,0,40.3" transform="translate(-106.646 -197.493)" opacity="0.1"/>
    <path id="Path_160" data-name="Path 160" d="M418.4,796.523,567.5,729.86s8.34,1.883,2.948,8.286-149.18,64.78-149.18,64.78L151.31,735.886Z" transform="translate(-106.211 -212.79)" fill="#ffbf00"/>
    <path id="Path_161" data-name="Path 161" d="M418.4,796.523,567.5,729.86s8.34,1.883,2.948,8.286-149.18,64.78-149.18,64.78L151.31,735.886Z" transform="translate(-106.211 -212.79)" opacity="0.1"/>
    <path id="Path_162" data-name="Path 162" d="M503.312,742.86s-14.379,18.078,0,45.2" transform="translate(-203.348 -215.998)" opacity="0.1"/>
    <path id="Path_452" data-name="Path 452" d="M0,1.724,68.315.75l-.01.75L-.01,2.474Z" transform="translate(304.537 547.464) rotate(-18.45)" opacity="0.1"/>
    <path id="Path_453" data-name="Path 453" d="M0,2.063,83.343.749l-.011.749L-.011,2.812Z" transform="translate(304.325 553.236) rotate(-20.82)" opacity="0.1"/>
    <path id="Path_454" data-name="Path 454" d="M0,2.355,96.679.748l-.012.748L-.012,3.1Z" transform="translate(304.599 560.133) rotate(-22.26)" opacity="0.1"/>
    <path id="Path_455" data-name="Path 455" d="M0,2.727,111.424.747l-.013.747L-.013,3.474Z" transform="translate(305.405 566.131) rotate(-24.31)" opacity="0.1"/>
    <path id="Path_456" data-name="Path 456" d="M0,2.866,121.816.748,121.8,1.5-.013,3.613Z" transform="matrix(0.916, -0.401, 0.401, 0.916, 306.179, 569.058)" opacity="0.1"/>
    <path id="Path_457" data-name="Path 457" d="M0,3.262,145.751.748l-.012.748L-.012,4.009Z" transform="translate(307.706 573.841) rotate(-23.36)" opacity="0.1"/>
    <path id="Path_163" data-name="Path 163" d="M152.23,604.811l126.534-27.87,77.085,15.442L252.163,627.408Z" transform="translate(-42.786 -142.352)" fill="#fff" opacity="0.3"/>
    <path id="Path_164" data-name="Path 164" d="M672.253,659.69s6.542,2.764,2.7,7.035S524,715.6,524,715.6Z" transform="translate(-210.959 -195.477)" fill="#ffbf00"/>
    <path id="Path_165" data-name="Path 165" d="M759.288,574.18s-16.291,20.835-3.35,52.351L625.809,685.662l-12.488,2.757-5.752-26.364,3.9-33.264V610.585Z" transform="translate(-234.447 -174.378)" fill="#d5d6db"/>
    <path id="Path_166" data-name="Path 166" d="M158.46,501.6l180.1-34.394,238.66,39.832L428.99,562.957Z" transform="translate(-44.537 -115.278)" fill="#4b4b5b"/>
    <path id="Path_167" data-name="Path 167" d="M244.347,556.29s-16.852,33.437,2.559,64.321l267.086,60.637s-16.572-26.658.884-63.613Z" transform="translate(-130.453 -169.964)" fill="#4b4b5b"/>
    <path id="Path_168" data-name="Path 168" d="M244.347,556.29s-16.852,33.437,2.559,64.321l267.086,60.637s-16.572-26.658.884-63.613L430.416,598.48Z" transform="translate(-130.453 -169.964)" opacity="0.1"/>
    <path id="Path_169" data-name="Path 169" d="M256.429,571.68s-9.619,24.458,0,40.3" transform="translate(-134.554 -173.761)" opacity="0.1"/>
    <path id="Path_170" data-name="Path 170" d="M517.686,700.344,666.8,633.68s8.332,1.883,2.94,8.286-149.18,64.78-149.18,64.78L250.6,639.706Z" transform="translate(-134.117 -189.059)" fill="#4b4b5b"/>
    <path id="Path_171" data-name="Path 171" d="M517.686,700.344,666.8,633.68s8.332,1.883,2.94,8.286-149.18,64.78-149.18,64.78L250.6,639.706Z" transform="translate(-134.117 -189.059)" opacity="0.1"/>
    <path id="Path_172" data-name="Path 172" d="M602.6,646.68s-14.379,18.078,0,45.2" transform="translate(-231.254 -192.266)" opacity="0.1"/>
    <path id="Path_458" data-name="Path 458" d="M0,1.724,68.315.75l-.01.75L-.01,2.474Z" transform="translate(375.926 475.023) rotate(-18.45)" opacity="0.1"/>
    <path id="Path_459" data-name="Path 459" d="M0,2.063,83.343.749l-.011.749L-.011,2.812Z" transform="translate(375.724 480.792) rotate(-20.82)" opacity="0.1"/>
    <path id="Path_460" data-name="Path 460" d="M0,2.355,96.679.748l-.012.748L-.012,3.1Z" transform="translate(375.986 487.679) rotate(-22.26)" opacity="0.1"/>
    <path id="Path_461" data-name="Path 461" d="M0,2.727,111.424.747l-.013.747L-.013,3.474Z" transform="translate(376.801 493.678) rotate(-24.31)" opacity="0.1"/>
    <path id="Path_462" data-name="Path 462" d="M0,2.866,121.816.748,121.8,1.5-.013,3.613Z" transform="matrix(0.916, -0.401, 0.401, 0.916, 377.565, 496.595)" opacity="0.1"/>
    <path id="Path_463" data-name="Path 463" d="M0,3.262,145.751.748l-.012.748L-.012,4.009Z" transform="translate(379.097 501.378) rotate(-23.36)" opacity="0.1"/>
    <path id="Path_173" data-name="Path 173" d="M251.53,508.631,378.064,480.76,455.148,496.2,351.463,531.228Z" transform="translate(-70.695 -118.621)" fill="#fff" opacity="0.45"/>
    <path id="Path_174" data-name="Path 174" d="M771.561,563.51s6.535,2.765,2.7,7.028S623.33,619.417,623.33,619.417Z" transform="translate(-238.876 -171.745)" fill="#4b4b5b"/>
    <path id="Path_175" data-name="Path 175" d="M768.7,464.15s-16.3,37.414-3.357,68.923L635.211,575.632,622.751,578.4,617,552.033l3.846-33.271V500.555Z" transform="translate(-237.097 -147.229)" fill="#d5d6db"/>
    <path id="Path_176" data-name="Path 176" d="M167.89,391.581,348,357.18l238.66,39.832L438.42,452.927Z" transform="translate(-47.187 -88.129)" fill="#ffbf00"/>
    <path id="Path_177" data-name="Path 177" d="M253.811,446.26s-16.874,33.437,2.538,64.321l267.086,60.637s-16.579-26.658.877-63.605Z" transform="translate(-133.109 -142.815)" fill="#ffbf00"/>
    <path id="Path_178" data-name="Path 178" d="M253.811,446.26s-16.874,33.437,2.538,64.321l267.086,60.637s-16.579-26.658.877-63.605Z" transform="translate(-133.109 -142.815)" opacity="0.1"/>
    <path id="Path_179" data-name="Path 179" d="M265.867,461.65s-9.627,24.466,0,40.3" transform="translate(-137.206 -146.612)" opacity="0.1"/>
    <path id="Path_180" data-name="Path 180" d="M527.126,592.287,676.235,542.2s8.34,1.883,2.948,8.286S530,598.69,530,598.69L260.04,531.65Z" transform="translate(-136.77 -163.884)" fill="#ffbf00"/>
    <path id="Path_181" data-name="Path 181" d="M527.126,592.287,676.235,542.2s8.34,1.883,2.948,8.286S530,598.69,530,598.69L260.04,531.65Z" transform="translate(-136.77 -163.884)" opacity="0.1"/>
    <path id="Path_182" data-name="Path 182" d="M612.042,536.65s-14.379,18.078,0,45.2" transform="translate(-233.908 -165.118)" opacity="0.1"/>
    <path id="Path_464" data-name="Path 464" d="M0,1.724,68.315.75l-.01.75L-.01,2.474Z" transform="translate(382.715 392.141) rotate(-18.45)" opacity="0.1"/>
    <path id="Path_465" data-name="Path 465" d="M0,2.063,83.343.749l-.011.749L-.011,2.812Z" transform="translate(382.508 397.914) rotate(-20.82)" opacity="0.1"/>
    <path id="Path_466" data-name="Path 466" d="M0,2.355,96.679.748l-.012.748L-.012,3.1Z" transform="translate(382.764 404.804) rotate(-22.26)" opacity="0.1"/>
    <path id="Path_467" data-name="Path 467" d="M0,2.727,111.424.747l-.013.747L-.013,3.474Z" transform="translate(383.589 410.796) rotate(-24.31)" opacity="0.1"/>
    <path id="Path_468" data-name="Path 468" d="M0,2.866,121.816.748,121.8,1.5-.013,3.613Z" transform="matrix(0.916, -0.401, 0.401, 0.916, 384.356, 413.721)" opacity="0.1"/>
    <path id="Path_469" data-name="Path 469" d="M0,3.262,145.751.748l-.012.748L-.012,4.009Z" transform="translate(385.885 418.509) rotate(-23.36)" opacity="0.1"/>
    <path id="Path_183" data-name="Path 183" d="M260.96,398.6,387.494,370.73l77.085,15.442L360.893,421.2Z" transform="translate(-73.345 -91.472)" fill="#fff" opacity="0.3"/>
    <path id="Path_184" data-name="Path 184" d="M780.991,453.48s6.542,2.764,2.7,7.035S632.76,509.394,632.76,509.394Z" transform="translate(-241.527 -144.596)" fill="#ffbf00"/>
    <path id="Path_185" data-name="Path 185" d="M389.466,149.908s-27.32-1.725-24.128,18.357c0,0-.64,3.548,2.43,5.16,0,0,.05-1.506,2.8-.987a11.706,11.706,0,0,0,2.976.151,6.051,6.051,0,0,0,3.631-1.567h0s7.685-3.329,10.676-16.5c0,0,2.214-2.87,2.157-3.608l-4.63,2.064s1.574,3.488.338,6.388c0,0-.151-6.26-1.042-6.116-.18,0-2.394,1.213-2.394,1.213s2.71,6.079.661,10.493c0,0,.776-7.487-1.51-10.056l-3.25,1.989s3.171,6.275,1.021,11.4c0,0,.554-7.857-1.7-10.915l-2.948,2.41s2.984,6.184,1.165,10.433c0,0-.237-9.145-1.8-9.838,0,0-2.581,2.38-2.969,3.36,0,0,2.042,4.52.769,6.862,0,0-.769-6.094-1.438-6.124,0,0-2.567,4.037-2.833,6.779a15.147,15.147,0,0,1,2.207-7.186,7.587,7.587,0,0,0-3.925,2.132s.4-2.855,4.565-3.1c0,0,2.121-3.066,2.689-3.247,0,0-4.148-.369-6.657.8,0,0,2.214-2.689,7.412-1.507l2.876-2.486s-5.45-.753-7.765.083c0,0,2.667-2.38,8.548-.648l3.171-1.981s-4.652-1.047-7.419-.67c0,0,2.919-1.65,8.347.136l2.257-1.062s-3.4-.7-4.4-.814-1.05-.4-1.05-.4a11.37,11.37,0,0,1,6.4.753S389.56,150.224,389.466,149.908Z" transform="translate(-166.293 -69.684)" fill="#ffbf00"/>
    <path id="Path_186" data-name="Path 186" d="M924.066,259.488s-27.32-1.725-24.128,18.357c0,0-.64,3.548,2.43,5.16,0,0,.05-1.507,2.8-.987a12.1,12.1,0,0,0,2.976.151,6.033,6.033,0,0,0,3.595-1.567h0s7.693-3.329,10.676-16.5c0,0,2.214-2.87,2.157-3.608l-4.616,2.064s1.574,3.488.338,6.388c0,0-.151-6.26-1.035-6.116-.18,0-2.4,1.213-2.4,1.213s2.71,6.079.669,10.493c0,0,.776-7.487-1.517-10.056l-3.25,1.989s3.17,6.275,1.021,11.4c0,0,.554-7.856-1.7-10.915l-2.941,2.41s2.976,6.184,1.157,10.433c0,0-.237-9.145-1.8-9.838,0,0-2.574,2.38-2.969,3.36,0,0,2.042,4.52.776,6.862,0,0-.776-6.094-1.438-6.124,0,0-2.567,4.037-2.833,6.779a15.1,15.1,0,0,1,2.214-7.186,7.621,7.621,0,0,0-3.933,2.132s.4-2.855,4.565-3.1c0,0,2.121-3.066,2.689-3.254,0,0-4.141-.362-6.657.806,0,0,2.214-2.689,7.412-1.507l2.876-2.486s-5.457-.753-7.765.083c0,0,2.66-2.38,8.548-.648l3.163-1.981s-4.652-1.047-7.42-.67c0,0,2.919-1.65,8.347.136l2.265-1.062s-3.408-.7-4.407-.814-1.05-.4-1.05-.4a11.288,11.288,0,0,1,6.4.753S924.152,259.8,924.066,259.488Z" transform="translate(-316.547 -96.722)" fill="#ffbf00" opacity="0.1"/>
    <path id="Path_187" data-name="Path 187" d="M451.2,309.168s-11.906-25.859-27.061-13.114a4.851,4.851,0,0,0-3.113,4.738s1.258-.685,2.157,2.087a13.61,13.61,0,0,0,1.323,2.787,6.263,6.263,0,0,0,3.084,2.561h0s6.521,5.408,18.951,1.717c0,0,3.473.625,4.04.188l-3.969-3.216s-2.157,3.141-5.162,3.42c0,0,5.148-3.186,4.594-3.924-.115-.151-2.157-1.6-2.157-1.6s-3.746,5.446-8.419,5.725c0,0,6.614-2.938,7.635-6.29l-3.235-2s-3.688,5.966-9,6.493c0,0,6.816-3.322,8.261-6.877l-3.437-1.507s-3.7,5.74-8.131,6.154c0,0,7.506-4.678,7.319-6.448,0,0-3.242-1.19-4.249-1.077,0,0-2.746,4.06-5.335,4.06,0,0,4.695-3.683,4.407-4.279,0,0-4.616-.377-7.046.753A13.459,13.459,0,0,1,429.727,298a7.727,7.727,0,0,0-3.7-2.554s2.574-1.024,4.81,2.659c0,0,3.595.444,4.019.874,0,0-1.718-3.962-3.911-5.687,0,0,3.321.7,4.839,6.026l3.487,1.446s-2.006-5.363-3.853-7.058c0,0,3.278,1.273,4.709,7.533l3.192,1.928s-1.388-4.768-3.055-7.111c0,0,2.8,1.868,3.954,7.7l1.992,1.552s-1.078-3.457-1.438-4.422-.18-1.16-.18-1.16a12.675,12.675,0,0,1,2.5,6.214S450.943,309.394,451.2,309.168Z" transform="translate(-182.016 -104.882)" fill="#ffbf00" opacity="0.1"/>
    <path id="Path_188" data-name="Path 188" d="M834.982,205.548s-11.9-25.859-27.061-13.114a4.861,4.861,0,0,0-3.113,4.738s1.265-.678,2.157,2.087a13.325,13.325,0,0,0,1.33,2.795,6.226,6.226,0,0,0,3.077,2.554h0s6.528,5.408,18.951,1.725c0,0,3.472.618,4.048.181l-3.947-3.224s-2.157,3.149-5.155,3.427c0,0,5.14-3.194,4.587-3.932-.115-.151-2.157-1.6-2.157-1.6s-3.738,5.446-8.419,5.725c0,0,6.622-2.938,7.642-6.282l-3.286-1.989s-3.681,5.958-9,6.493c0,0,6.815-3.329,8.268-6.885l-3.444-1.507s-3.7,5.747-8.124,6.154c0,0,7.5-4.678,7.312-6.44,0,0-3.235-1.2-4.242-1.077,0,0-2.746,4.053-5.342,4.053,0,0,4.7-3.683,4.414-4.279,0,0-4.616-.377-7.053.753a13.451,13.451,0,0,1,7.067-1.507,7.683,7.683,0,0,0-3.688-2.554s2.574-1.024,4.81,2.659c0,0,3.595.452,4.019.881,0,0-1.718-3.97-3.918-5.695,0,0,3.321.708,4.838,6.064l3.494,1.446s-2.006-5.371-3.854-7.066c0,0,3.278,1.273,4.7,7.533l3.2,1.928s-1.395-4.761-3.063-7.111c0,0,2.8,1.868,3.954,7.7l1.991,1.552s-1.071-3.457-1.438-4.422-.18-1.152-.18-1.152a12.708,12.708,0,0,1,2.495,6.214S834.759,205.789,834.982,205.548Z" transform="translate(-289.881 -79.315)" fill="#ffbf00" opacity="0.1"/>
    <path id="Path_189" data-name="Path 189" d="M887.864,375.356s-11.9-25.867-27.083-13.122a4.86,4.86,0,0,0-3.113,4.738s1.265-.678,2.157,2.086a13.307,13.307,0,0,0,1.323,2.795,6.226,6.226,0,0,0,3.077,2.554h0s6.528,5.416,18.958,1.725c0,0,3.465.625,4.041.181l-3.969-3.216s-2.157,3.149-5.162,3.427c0,0,5.14-3.194,4.587-3.932-.115-.151-2.157-1.6-2.157-1.6s-3.739,5.446-8.419,5.732c0,0,6.621-2.945,7.642-6.29l-3.242-2s-3.681,5.966-9,6.493c0,0,6.816-3.329,8.268-6.885l-3.444-1.507s-3.7,5.74-8.124,6.154c0,0,7.506-4.678,7.319-6.448,0,0-3.242-1.2-4.249-1.077,0,0-2.746,4.053-5.342,4.053,0,0,4.7-3.683,4.414-4.279,0,0-4.615-.377-7.053.753a13.491,13.491,0,0,1,7.074-1.506,7.667,7.667,0,0,0-3.7-2.554s2.574-1.032,4.81,2.659c0,0,3.595.444,4.019.874,0,0-1.718-3.962-3.911-5.695,0,0,3.321.708,4.838,6.064l3.487,1.446s-2.006-5.371-3.854-7.058c0,0,3.278,1.266,4.7,7.533l3.2,1.921s-1.395-4.761-3.063-7.111c0,0,2.8,1.868,3.961,7.706l1.991,1.507s-1.078-3.457-1.438-4.422-.18-1.153-.18-1.153a12.628,12.628,0,0,1,2.495,6.214S887.641,375.581,887.864,375.356Z" transform="translate(-304.738 -121.211)" fill="#ffbf00" opacity="0.1"/>
    <ellipse id="Ellipse_5" data-name="Ellipse 5" cx="16.528" cy="1.936" rx="16.528" ry="1.936" transform="translate(128.662 586.806)" fill="#ffbf00" opacity="0.1"/>
    <ellipse id="Ellipse_6" data-name="Ellipse 6" cx="16.528" cy="1.936" rx="16.528" ry="1.936" transform="translate(20.31 553.904)" fill="#ffbf00" opacity="0.1"/>
    <ellipse id="Ellipse_7" data-name="Ellipse 7" cx="16.528" cy="1.936" rx="16.528" ry="1.936" transform="translate(211.254 608.659)" fill="#ffbf00" opacity="0.1"/>
    <ellipse id="Ellipse_8" data-name="Ellipse 8" cx="16.528" cy="1.936" rx="16.528" ry="1.936" transform="translate(634.494 561.06)" fill="#ffbf00" opacity="0.1"/>
    <ellipse id="Ellipse_9" data-name="Ellipse 9" cx="16.528" cy="1.936" rx="16.528" ry="1.936" transform="translate(496.953 551.667)" fill="#ffbf00" opacity="0.1"/>
    <ellipse id="Ellipse_10" data-name="Ellipse 10" cx="19.548" cy="3.518" rx="19.548" ry="3.518" transform="translate(404.958 594.316)" fill="#ffbf00" opacity="0.1"/>
    <path id="Path_190" data-name="Path 190" d="M684.45,790.14s-27.219,14.734-13.157,32.089c0,0,1.323,3.766,5.148,3.5,0,0-.762-1.461,2.157-2.629a13.829,13.829,0,0,0,2.941-1.635,7.218,7.218,0,0,0,2.631-3.684h0s5.565-7.8,1.251-22.244c0,0,.561-4.083.072-4.746l-3.307,4.753s3.415,2.4,3.81,5.936c0,0-3.595-5.928-4.314-5.273-.158.135-1.639,2.6-1.639,2.6s5.924,4.211,6.363,9.679c0,0-3.336-7.661-6.938-8.753l-2.063,3.857s6.471,4.128,7.189,10.335c0,0-3.76-7.872-7.6-9.461l-1.517,4.075s6.24,4.158,6.816,9.325c0,0-5.22-8.64-7.1-8.369,0,0-1.179,3.827-1.021,5.009,0,0,4.407,3.088,4.486,6.124,0,0-4.069-5.386-4.695-5.032,0,0-.259,5.416.992,8.233a16.858,16.858,0,0,1-1.8-8.233,9.112,9.112,0,0,0-2.61,4.4s-1.172-2.975,2.689-5.717c0,0,.367-4.211.813-4.731,0,0-4.177,2.139-5.953,4.761,0,0,.654-3.909,6.319-5.853l1.438-4.128s-5.665,2.516-7.412,4.73c0,0,1.258-3.879,7.858-5.74l1.956-3.766s-5.033,1.778-7.491,3.766c0,0,1.905-3.337,8.1-4.874l1.589-2.373s-3.652,1.363-4.673,1.853-1.222.249-1.222.249a12.951,12.951,0,0,1,6.549-3.118S684.7,790.4,684.45,790.14Z" transform="translate(-251.223 -227.664)" fill="#ffbf00"/>
    <path id="Path_191" data-name="Path 191" d="M708.212,327.619c-4.7-13.385-30.584-14.643-41.814-11.231-7.98,2.433-24.8,5.175-33.79,6.553l-.582-.58c1.165-.362,1.194-1.25,1.05-2.569a42.128,42.128,0,0,1,.072-5.213c5.507,1.793,10.41-2.448,10.41-2.448h0c6.47-3.013,4.731-15.909,5.967-19.434.927-2.636,1.927-18.169,2.372-25.912h.094l.05-2.6c.065-1.122.094-1.778.094-1.778s.633-18.937,1.869-22.771c1.15-3.525,2.085-21.287,2.229-24.1v-.369l-.093-1.642c.065-1.2.093-2.531.086-3.932,0-6.44-.64-14.553-.719-15.864v-.686c.05-2.749-.28-16.519-11.46-21.724-4.12-1.928-9.073-4.226-13.868-6.463-1.237-11.186-4.062-22.312-3.818-33.58,0-1.695.144-3.39.3-5.077,0,.49-.05.987-.058,1.507v3.284c.424-14.093,5.507-28.262,5.033-42.055-.043,1.348-.137,2.7-.259,4.06A45.783,45.783,0,0,0,630,79.141a8.311,8.311,0,0,0-2.257-4.294,9.057,9.057,0,0,0-3.94-1.635,76.006,76.006,0,0,0-10.346-2.019,17.039,17.039,0,0,0-2.329-4.738c-7.29-10.485-18.089-20.338-30.857-22.6-6.406-1.13-13.775-.188-18.132,4.61a13.955,13.955,0,0,0-1.28,1.356c-2.344,2.93-3.35,6.779-5.752,9.7-.158.2-.338.377-.51.565-4.7,4.407-12.028,5.326-17.255,9.28a21.033,21.033,0,0,0-2.581,2.358,45.471,45.471,0,0,0-5.636,7.179c-2.351,3.465-4.767,7.073-5.514,11.209-1.5,8.286,3.882,16.142,4.882,24.481,2.229,18.658-17.477,35.215-13.746,53.625a24.893,24.893,0,0,0,6.341,11.924c-7.686,7.292-14.228,14.365-14.228,14.365v.422h-1.215l.122,1.507h-.122l.669,8.173-.669,11.9v1.122h.043c.223,4.361,1.107,20.044,2.157,23.351,1.237,3.834,1.862,22.771,1.862,22.771s1.366,26.763,2.617,30.3-.525,16.4,5.967,19.434h0a13.334,13.334,0,0,0,6.521,2.832c-.331,2.817-.122,4.859.949,5.5a3.028,3.028,0,0,0,1.51.452,17.007,17.007,0,0,0-1.172,2.147,29.3,29.3,0,0,1-7.535-1.861c-6.974-3.013-30.116-9.792-36.838-5.024s-22.9,9.092-15.428,28.285S477.246,365.5,477.246,365.5a27.278,27.278,0,0,1,5.974,6.29c2.243,3.533,23.143,11.615,28.369,11.615a48.861,48.861,0,0,1,6.65.346s-5.672,5.213-4.918,8.241-1.726,27.268-1.726,27.268,5.752,6.071,8.21-1.891l.086.12c.46.655,2.948,3.616,7.628-.12a42.536,42.536,0,0,1,6.082-4.037l22.661-3.36a61.224,61.224,0,0,1,7.1-.053c3.595.309,7.125-1.921,9.346-3.646,4.695,1.868,9.972,3.909,12.481,4.655,5.09,1.507,28.484,8.082,33.956,6.026a7.617,7.617,0,0,0,2.948-2.2l5.22.173-2.444.512s4.759.083,11.23.173l-.273.166,8.117-.075c11.877.113,25.22.151,26.975-.264,2.746-.64,17.017-.188,21.223,0h1.172s15.68-3.277,9.21-19.946c-4.975-12.805-20.267-16.527-27.054-17.551,1.912-.4,3.559-.708,4.652-.889,4.738-.753,13.94-5.273,14.688-6.817s8.462-6.026,10.453-8.58S712.936,341,708.212,327.619Zm-129.877,37.46-.769.264-.518.181-.992,1.024c-.791-.557-1.639-1.145-2.523-1.748C575.093,364.9,576.7,365,578.336,365.079Zm68.522,21.227Z" transform="translate(-194.199 -43.42)" fill="url(#linear-gradient)"/>
    <path id="Path_192" data-name="Path 192" d="M686.65,334.569s11,30.13,17.255,27.117,4.558-15.818,5.752-19.329,2.516-30.13,2.516-30.13.6-18.831,1.8-22.643c1.107-3.5,2.006-21.167,2.157-23.946v-.369l-1.186-21.845-6.715-1.755L692.653,247.7,690.5,260.6l-.841,5.039-.359,2.147Z" transform="translate(-256.673 -92.334)" fill="#be6f72"/>
    <path id="Path_193" data-name="Path 193" d="M691.69,358.3s10.5,9,13.66,9.792,5.1,7.811,5.1,7.811" transform="translate(-258.09 -121.112)" opacity="0.1"/>
    <path id="Path_194" data-name="Path 194" d="M555.476,336.32s-11,30.13-17.255,27.117-4.558-15.818-5.752-19.329-2.516-30.13-2.516-30.13-.6-18.831-1.8-22.643c-1.107-3.5-2.006-21.167-2.157-23.946v-.369l1.193-21.845,6.715-1.755,15.572,6.026,2.157,12.9.841,5.039.359,2.147Z" transform="translate(-211.521 -92.766)" fill="#be6f72"/>
    <rect id="Rectangle_30" data-name="Rectangle 30" width="24.552" height="40.096" transform="translate(391.032 82.311)" fill="#3e373a"/>
    <rect id="Rectangle_31" data-name="Rectangle 31" width="24.552" height="40.096" transform="translate(391.032 82.311)" opacity="0.1"/>
    <path id="Path_195" data-name="Path 195" d="M558.666,405.8s-8.39,9.664-5.277,11.419,23.251,34.65,23.251,34.65,66.143,8.534,78.616-4.271,12.222-35.682,12.222-35.682-10.022,2.26-11.115,1.032-7.1-7.148-7.1-7.148S564.418,400.411,558.666,405.8Z" transform="translate(-219.024 -132.242)" fill="#4b4b5b"/>
    <path id="Path_196" data-name="Path 196" d="M558.666,405.8s-8.39,9.664-5.277,11.419,23.251,34.65,23.251,34.65,66.143,8.534,78.616-4.271,12.222-35.682,12.222-35.682-10.022,2.26-11.115,1.032-7.1-7.148-7.1-7.148S564.418,400.411,558.666,405.8Z" transform="translate(-219.024 -132.242)" opacity="0.02"/>
    <path id="Path_197" data-name="Path 197" d="M670.7,221.71l-21.568,18.078-6.521.5-2.394.181-40.21,3.088-41.7-3.194-6.2-.475-7.908-.6L527.66,222.712s11.7-13.137,21.956-22c4.04-3.5,7.858-6.335,10.64-7.45l.475-.173a11.845,11.845,0,0,0,4.558-3.329c8.1-8.745,15.579-30.326,15.579-30.326s35.71-19.329,31.4,6.026,16.054,19.088,16.054,19.088l6.715,3.209,2.653,1.273,6.765,3.247,15.263,7.337C671.693,205.387,670.7,221.71,670.7,221.71Z" transform="translate(-211.987 -70.303)" fill="#be6f72"/>
    <ellipse id="Ellipse_11" data-name="Ellipse 11" cx="32.115" cy="33.648" rx="32.115" ry="33.648" transform="translate(354.229 42.478)" opacity="0.1"/>
    <path id="Path_198" data-name="Path 198" d="M670.284,259H526v-.369l1.193-21.845s11.7-13.137,21.956-22l90.586-3.766,4.213-4.655,15.263,7.337c11.985,5.77,11.021,22.093,11.021,22.093S671.873,254.7,670.284,259Z" transform="translate(-211.521 -83.622)" opacity="0.1"/>
    <path id="Path_199" data-name="Path 199" d="M670.284,258H526v-.369l1.193-21.844s11.7-13.137,21.956-22l90.586-3.766,4.213-4.655,15.263,7.337c11.985,5.77,11.021,22.093,11.021,22.093S671.873,253.7,670.284,258Z" transform="translate(-211.521 -83.375)" fill="#e7c7ca"/>
    <path id="Path_200" data-name="Path 200" d="M590.277,191.764s22.762,30.386,53.079-.625,3.357,69.172,3.357,69.172l-65.424,8.135Z" transform="translate(-227.061 -78.397)" opacity="0.1"/>
    <path id="Path_201" data-name="Path 201" d="M590.277,193.764s22.762,30.386,53.079-.625,3.357,69.172,3.357,69.172l-65.424,8.135Z" transform="translate(-227.061 -78.89)" fill="#e7c7ca"/>
    <path id="Path_202" data-name="Path 202" d="M644.362,202.593l2.408,38.484,2.581,12.805,1.97,9.792s5.033,75.326,3.595,79.092.719,6.779,1.021,8.783-.3,7.035-.065,9.3,0,3.262-5.507,2.456-13.185-2.207-13.185-2.207-19.411,1.506-26.119-1-19.411-2.516-19.411-2.516-19.174.5-25.4-.249-9.591,8.037-13.66,5.521,4.788-26.861,7.664-33.9-3.832-24.858-3.832-24.858l8.627-50.145,1.92-11.367V206.849l.475-.173A11.844,11.844,0,0,0,572,203.346l2.157,35.961,67.58,2.516V201.35" transform="translate(-218.699 -82.386)" opacity="0.1"/>
    <path id="Path_203" data-name="Path 203" d="M644.362,200.593l2.408,38.484,2.581,12.805,1.97,9.792s5.033,75.326,3.595,79.092.719,6.779,1.021,8.783-.3,7.035-.065,9.3,0,3.262-5.507,2.456-13.185-2.207-13.185-2.207-19.411,1.507-26.119-1-19.411-2.516-19.411-2.516-19.174.5-25.4-.249-9.591,8.037-13.66,5.521,4.788-26.861,7.664-33.9-3.832-24.858-3.832-24.858l8.627-50.144,1.92-11.367V204.849l.475-.173A11.845,11.845,0,0,0,572,201.346l2.157,35.961,67.58,2.516V199.35" transform="translate(-218.699 -81.892)" fill="#e7c7ca"/>
    <path id="Path_204" data-name="Path 204" d="M648.2,82.753a8.432,8.432,0,0,0-2.157-4.263,8.612,8.612,0,0,0-3.8-1.627,71.969,71.969,0,0,0-9.979-2,17.089,17.089,0,0,0-2.157-4.693c-7.046-10.425-17.47-20.255-29.735-22.477-6.42-1.168-13.861-.121-17.974,5.182-2.257,2.915-3.228,6.779-5.507,9.642-4.393,5.559-12.323,6.245-17.859,10.546-2.955,2.26-5.1,5.536-7.189,8.715-2.265,3.442-4.594,7.028-5.313,11.141-1.438,8.218,3.746,16.052,4.7,24.345,2.157,18.553-16.823,35.012-13.236,53.316,2.092,10.674,11.5,18.191,21.237,22,3.429,1.348,7.348,2.689,8.951,6.139.719,1.507.841,3.247,1.517,4.768,2.272,5.077,9.742,5.273,13.753,1.574s5.277-9.679,5.752-15.261c1.927-24.375-7.391-48.457-6.305-72.893.324-7.389,2.308-15.773,8.627-19.118,8.505-4.52,18.736,3.013,28.1,1.574A61.01,61.01,0,0,1,622.32,135c-1.488,6.5-4.062,12.805-4.249,19.509-.28,10.207,4.975,19.532,9.519,28.556a15.655,15.655,0,0,1,1.92,5.506,13.83,13.83,0,0,1-1.028,5.762c-2.567,7.239-7,13.958-7.5,21.664a3.636,3.636,0,0,0,.539,2.576,3.029,3.029,0,0,0,1.855.874c7.765,1.394,14.479-5.815,18.268-13.054a63.393,63.393,0,0,0,7.2-26c.784-15.336-4.465-30.424-4.141-45.776C645.082,117.162,652.609,99.589,648.2,82.753Z" transform="translate(-214.767 -44.365)" opacity="0.1"/>
    <path id="Path_205" data-name="Path 205" d="M649.2,81.753a8.433,8.433,0,0,0-2.157-4.263,8.612,8.612,0,0,0-3.8-1.627,71.964,71.964,0,0,0-9.979-2,17.093,17.093,0,0,0-2.157-4.693c-7.046-10.425-17.47-20.255-29.735-22.477-6.42-1.168-13.861-.121-17.973,5.182-2.257,2.915-3.228,6.779-5.507,9.642-4.393,5.559-12.323,6.245-17.858,10.546-2.955,2.26-5.1,5.536-7.189,8.715-2.265,3.442-4.594,7.028-5.313,11.141-1.438,8.218,3.746,16.052,4.7,24.345,2.157,18.553-16.823,35.011-13.236,53.316,2.092,10.674,11.5,18.191,21.237,22,3.429,1.348,7.348,2.689,8.951,6.139.719,1.507.841,3.247,1.517,4.768,2.272,5.077,9.742,5.273,13.753,1.574s5.277-9.679,5.752-15.261c1.927-24.375-7.391-48.457-6.305-72.893.324-7.389,2.308-15.773,8.627-19.118,8.505-4.52,18.736,3.013,28.1,1.574A61.007,61.007,0,0,1,623.32,134c-1.488,6.5-4.062,12.805-4.249,19.509-.28,10.207,4.975,19.532,9.519,28.556a15.661,15.661,0,0,1,1.92,5.506,13.829,13.829,0,0,1-1.028,5.762c-2.567,7.239-7,13.958-7.5,21.664a3.636,3.636,0,0,0,.539,2.576,3.029,3.029,0,0,0,1.855.874c7.765,1.394,14.48-5.815,18.268-13.054a63.392,63.392,0,0,0,7.2-26c.784-15.336-4.465-30.424-4.141-45.776C646.082,116.162,653.609,98.589,649.2,81.753Z" transform="translate(-215.048 -44.119)" fill="#3e373a"/>
    <path id="Path_206" data-name="Path 206" d="M581.79,485.784l28.52.957L606.22,464.58l-21.849,2.177Z" transform="translate(-163.518 -114.629)" fill="#c3c7d9"/>
    <path id="Path_207" data-name="Path 207" d="M741.482,451.126c-1.92,2.508-9.346,7.028-10.065,8.534s-9.583,6.026-14.141,6.779-18.93,4.022-21.568,5.777c-1.891,1.266-17.068,5.273-27.039,7.495a73.585,73.585,0,0,1-8.189,1.544c-4.314.249-51.519-16.572-51.519-16.572l9.1-9.792.5-.181c2.574-.911,14.465-5.122,21.065-7.126,7.434-2.26,16.061-11.548,16.061-11.548s12.7-4.52,14.379-5.024-4.314-17.574-4.314-17.574,27.557-4.007,38.341-7.4,35.71-2.139,40.261,11.171S743.431,448.617,741.482,451.126Z" transform="translate(-234.838 -132.495)" fill="#4b4b5b"/>
    <path id="Path_208" data-name="Path 208" d="M594.825,514.033s-5.507,6.026-11.021,5.529-24.8,1.506-24.8,1.506a38.276,38.276,0,0,0-9.713,5.9c-4.508,3.721-6.9.753-7.347.121l-.079-.121c-2.4,7.917-7.908,1.883-7.908,1.883s2.394-24.1,1.661-27.117,4.738-8.188,4.738-8.188l6.471-1.725,16.392-4.4,23.488,8.534Z" transform="translate(-213.758 -152.971)" fill="#e7c7ca"/>
    <path id="Path_209" data-name="Path 209" d="M546.8,493.26l-4.853,35.268-.079-.12c-2.4,7.917-7.908,1.883-7.908,1.883s2.394-24.1,1.661-27.117,4.738-8.188,4.738-8.188Z" transform="translate(-213.758 -154.412)" opacity="0.1"/>
    <path id="Path_210" data-name="Path 210" d="M599,360.08s12.7,4.52,23.725,0" transform="translate(-232.038 -121.551)" opacity="0.1"/>
    <path id="Path_211" data-name="Path 211" d="M659.29,371.42s5.27,2.757,9.346,0" transform="translate(-248.983 -124.349)" opacity="0.1"/>
    <path id="Path_212" data-name="Path 212" d="M659.29,379.685s8.864,1.243,10.547-1.265" transform="translate(-248.983 -126.076)" opacity="0.1"/>
    <path id="Path_213" data-name="Path 213" d="M655.29,397.023s16.651-2.26,20.784-5.273" transform="translate(-247.859 -129.365)" opacity="0.1"/>
    <path id="Path_214" data-name="Path 214" d="M584.62,391.75s9.346,5.521,16.3,5.273" transform="translate(-227.997 -129.365)" opacity="0.1"/>
    <path id="Path_215" data-name="Path 215" d="M668.658,496.181a73.612,73.612,0,0,1-8.189,1.544c-4.314.249-51.519-16.572-51.519-16.572l9.1-9.792.5-.181c1.438,1.062,2.617,1.974,3.458,2.666,3.961,3.269,7.786-1,9.224-1s13.9,10.794,13.9,10.794,11.5,2.765,13.423,5.273,8.627,2.011,9.821,3.766A7.018,7.018,0,0,1,668.658,496.181Z" transform="translate(-234.835 -148.964)" opacity="0.1"/>
    <path id="Path_216" data-name="Path 216" d="M541.231,414.83s-11.633.7-18.34-2.26-28.995-9.792-35.465-4.994-22.05,9.039-14.861,28.127,10.547,19.585,10.547,19.585a26.679,26.679,0,0,1,5.752,6.252c2.157,3.518,22.287,11.547,27.32,11.547s13.9,0,26.356,9.039,23.725,10.048,23.725,10.048,15.817,6.779,20.741,8.286,27.428,8.03,32.7,6.026,8.627-14.568,8.627-14.568,2.394-11.3,1.194-13.054-7.908-1.258-9.821-3.766-13.423-5.273-13.423-5.273-12.43-10.8-13.868-10.8-5.263,4.263-9.224,1a209.4,209.4,0,0,0-24.811-16.572C549.283,438.43,541.231,414.83,541.231,414.83Z" transform="translate(-195.981 -132.86)" fill="#4b4b5b"/>
    <path id="Path_217" data-name="Path 217" d="M536.27,427.325a13.289,13.289,0,0,1,11.784,3.262c5.752,5.024,25.105,15.11,25.105,15.11" transform="translate(-214.407 -138.071)" opacity="0.1"/>
    <path id="Path_218" data-name="Path 218" d="M724.393,427s-25.645,4.068-30.433,9.589" transform="translate(-258.728 -138.063)" opacity="0.1"/>
    <path id="Path_219" data-name="Path 219" d="M751.525,525.083H750.4c-4.055-.151-17.794-.6-20.439,0-3.113.753-44.337,0-44.337,0l8.059-1.755s-2.991-10.983-1.093-11.894c0,0-10.784-7.442-2.653-12.466a24.2,24.2,0,0,1,16.9-2.908l20.411-7.246,3.918-1.394s23.006,1.258,29.232,17.83S751.525,525.083,751.525,525.083Z" transform="translate(-256.384 -152.971)" fill="#e7c7ca"/>
    <path id="Path_220" data-name="Path 220" d="M767.8,525.1h-1.129c6.693-5.785,21.834-23.4-23.157-36.232l3.918-1.394s23.006,1.258,29.232,17.83S767.8,525.1,767.8,525.1Z" transform="translate(-272.654 -152.983)" opacity="0.1"/>
    <ellipse id="Ellipse_12" data-name="Ellipse 12" cx="1.258" cy="1.318" rx="1.258" ry="1.318" transform="translate(451.588 349.951)" fill="#4b4b5b"/>
    <ellipse id="Ellipse_13" data-name="Ellipse 13" cx="1.258" cy="1.318" rx="1.258" ry="1.318" transform="translate(444.277 352.128)" fill="#4b4b5b"/>
    <g id="Group_22" data-name="Group 22" transform="translate(323.698 47.374)" opacity="0.1">
      <path id="Path_221" data-name="Path 221" d="M642.738,133.906a60.922,60.922,0,0,0-4.127-24.21c-9.346,1.461-19.584-6.094-28.1-1.574-6.3,3.344-8.275,11.728-8.627,19.118-.086,1.951-.1,3.9-.065,5.853,0-.693,0-1.394.065-2.087.331-7.389,2.308-15.773,8.627-19.118,8.512-4.52,18.736,3.013,28.1,1.574a60.68,60.68,0,0,1,4.127,20.443Z" transform="translate(-556.524 -106.397)"/>
      <path id="Path_222" data-name="Path 222" d="M556.033,133.023a26.3,26.3,0,0,0-.093-4.926c-.762-6.629-4.22-12.964-4.846-19.427-.805,7.8,3.933,15.284,4.846,23.193A4.927,4.927,0,0,1,556.033,133.023Z" transform="translate(-542.246 -106.892)"/>
      <path id="Path_223" data-name="Path 223" d="M590.491,223.483c-.446,5.589-1.7,11.563-5.752,15.269s-11.5,3.5-13.753-1.574c-.719-1.507-.827-3.262-1.524-4.768-1.6-3.45-5.521-4.791-8.951-6.139-9.742-3.819-19.138-11.3-21.23-22a24.146,24.146,0,0,1-.381-2.938,24.847,24.847,0,0,0,.381,6.7c2.092,10.674,11.5,18.184,21.23,22,3.429,1.348,7.355,2.689,8.951,6.139.719,1.507.841,3.247,1.524,4.768,2.265,5.077,9.734,5.273,13.753,1.574s5.27-9.679,5.752-15.269q.328-4.413.223-8.843C590.714,220.116,590.62,221.8,590.491,223.483Z" transform="translate(-538.823 -129.755)"/>
      <path id="Path_224" data-name="Path 224" d="M687.93,144.862v3.262c.4-14.011,5.306-28.1,4.824-41.813C692.38,118.995,688.2,131.966,687.93,144.862Z" transform="translate(-580.731 -106.31)"/>
      <path id="Path_225" data-name="Path 225" d="M662.061,221.53a10.169,10.169,0,0,0,.165-2.719,15.528,15.528,0,0,0-1.92-5.506c-4.155-8.286-8.893-16.768-9.454-25.965,0,.392-.05.753-.057,1.175-.288,10.2,4.968,19.532,9.512,28.556A18.578,18.578,0,0,1,662.061,221.53Z" transform="translate(-570.291 -126.303)"/>
      <path id="Path_226" data-name="Path 226" d="M682.745,217.767a63.486,63.486,0,0,1-7.254,26c-3.8,7.239-10.5,14.448-18.275,13.054a3,3,0,0,1-1.855-.881,1.9,1.9,0,0,1-.338-.588c-.086.588-.158,1.183-.2,1.785a3.6,3.6,0,0,0,.539,2.569,3,3,0,0,0,1.855.881c7.772,1.394,14.479-5.815,18.275-13.054a63.486,63.486,0,0,0,7.254-26c.086-1.763.093-3.518.043-5.273C682.773,216.765,682.773,217.262,682.745,217.767Z" transform="translate(-571.411 -133.439)"/>
    </g>
    <path id="Path_227" data-name="Path 227" d="M695.31,516.122s18.2,8,30.2-9.7" transform="translate(-259.107 -157.659)" fill="none" stroke="#000" stroke-miterlimit="10" stroke-width="1" opacity="0.1"/>
    <path id="Path_228" data-name="Path 228" d="M700.29,536.353s14.861-10.124,33.79-.331" transform="translate(-260.507 -163.91)" fill="none" stroke="#000" stroke-miterlimit="10" stroke-width="1" opacity="0.1"/>
    <path id="Path_229" data-name="Path 229" d="M561.93,532.278s6.24-14.749,22.905-3.5" transform="translate(-221.619 -162.132)" fill="none" stroke="#000" stroke-miterlimit="10" stroke-width="1" opacity="0.1"/>
    <path id="Path_230" data-name="Path 230" d="M533.79,240.423l12.725-12.052s49.341-3.39,51.383,14.184c0,0,17.492-20.835,54.28-16.2l15.565,12.986-43.022,19.781-41.806,15.193-30.792-14.44Z" transform="translate(-213.71 -88.39)" opacity="0.1"/>
    <path id="Path_231" data-name="Path 231" d="M533.79,241.423l12.725-12.052s49.341-3.39,51.383,14.184c0,0,17.492-20.835,54.28-16.2l15.565,12.986-43.022,19.781-41.806,15.193-30.792-14.44Z" transform="translate(-213.71 -88.637)" fill="#d5d6db"/>
    <path id="Path_232" data-name="Path 232" d="M437.38,204.83l5.629,70.558,59.672,3.141-2.588-70.257-.05-1.183Z" transform="translate(-122.93 -50.538)" opacity="0.1"/>
    <path id="Path_233" data-name="Path 233" d="M437.38,202.83l5.629,70.558,59.672,3.141-2.588-70.257-.05-1.183Z" transform="translate(-122.93 -50.044)" fill="#ffbf00"/>
    <path id="Path_234" data-name="Path 234" d="M611.266,202.83,549.71,212.5v70.874l60.154-9.107Z" transform="translate(-154.501 -50.044)" opacity="0.1"/>
    <path id="Path_235" data-name="Path 235" d="M611.266,200.83,549.71,210.5v70.874l60.154-9.107Z" transform="translate(-154.501 -49.551)" fill="#ffbf00"/>
    <path id="Path_236" data-name="Path 236" d="M602.141,223.79l-33.251,3.872.726,11.871,32.5-3.721Z" transform="translate(-159.892 -55.216)" fill="#fff" opacity="0.3"/>
    <path id="Path_237" data-name="Path 237" d="M537.725,369.5l3.386,9.544s5.033,4.52,10.54,2.26,10.31-3.382,12.7-5.582,5.752-13.25,5.752-13.25,3.357-12.052,6.708-15.065,12.222-44.525,0-40.465-21.568,41.723-21.568,41.723a8.466,8.466,0,0,1-5.27,3.013c-3.113.256-9.346-.5-10.547,2.26S534.13,363.975,537.725,369.5Z" transform="translate(-214.41 -108.37)" fill="#be6f72"/>
    <path id="Path_238" data-name="Path 238" d="M631.233,257.535a20.022,20.022,0,0,1-18.053-4.715l2.6,70.249s6.111,6.93,15.457,5.348Z" transform="translate(-236.024 -95.085)" opacity="0.1"/>
    <path id="Path_239" data-name="Path 239" d="M631.233,255.535a20.022,20.022,0,0,1-18.053-4.715l2.6,70.249s6.111,6.93,15.457,5.348Z" transform="translate(-236.024 -94.592)" fill="#ffbf00"/>
    <path id="Path_240" data-name="Path 240" d="M631.233,255.535a20.022,20.022,0,0,1-18.053-4.715l2.6,70.249s6.111,6.93,15.457,5.348Z" transform="translate(-236.024 -94.592)" opacity="0.1"/>
    <path id="Path_241" data-name="Path 241" d="M640.29,244.277s25.041-8.022,31.569-6.892" transform="translate(-243.643 -91.25)" opacity="0.1"/>
    <path id="Path_242" data-name="Path 242" d="M590.256,240.406s-24.271-6.026-28.326-4.316" transform="translate(-221.619 -90.882)" opacity="0.1"/>
    <path id="Path_243" data-name="Path 243" d="M662.25,246.524s16.744-6.433,22.8-3.375" transform="translate(-249.815 -92.496)" opacity="0.1"/>
    <path id="Path_244" data-name="Path 244" d="M650.52,457.807a54.7,54.7,0,0,1,8.253-5.371A133.759,133.759,0,0,0,671,444.61" transform="translate(-246.518 -142.408)" opacity="0.1"/>
    <path id="Path_245" data-name="Path 245" d="M554.594,360.08s-10.5,9-13.66,9.792-5.1,7.811-5.1,7.811" transform="translate(-214.284 -121.551)" opacity="0.1"/>
    <path id="Path_246" data-name="Path 246" d="M697.6,367.724l-3.35,9.566s-5.032,4.52-10.547,2.26-10.3-3.382-12.7-5.582-5.752-13.25-5.752-13.25-3.35-12.052-6.708-15.065-12.222-44.525,0-40.465,21.568,41.723,21.568,41.723a8.466,8.466,0,0,0,5.27,3.013c3.113.256,9.346-.5,10.547,2.26S701.2,362.225,697.6,367.724Z" transform="translate(-247.015 -107.938)" fill="#be6f72"/>
    <path id="Path_247" data-name="Path 247" d="M707.15,364.94s6.866,4.625,6.837,10.154" transform="translate(-262.435 -122.75)" opacity="0.1"/>
    <ellipse id="Ellipse_14" data-name="Ellipse 14" cx="32.115" cy="33.648" rx="32.115" ry="33.648" transform="translate(354.344 40.829)" fill="#be6f72"/>
    <path id="Path_248" data-name="Path 248" d="M591.853,118.68c3.9-.64,7.312-3.013,11.036-4.376,8.333-3.066,17.549-.964,25.983,1.8,3.235,1.062,6.521,2.26,9.914,2.26s7-1.454,8.728-4.52c1.6-2.817,1.287-6.478-.058-9.438a26.387,26.387,0,0,0-5.867-7.585c-7.477-7.4-16.751-14.312-27.011-13.559-4.127.309-8.074,1.853-11.87,3.563a128.615,128.615,0,0,0-13.933,7.352c-3.458,2.1-9.864,4.911-11.855,8.753C572.392,111.584,584.808,119.84,591.853,118.68Z" transform="translate(-225.56 -53.235)" fill="#3e373a"/>
    <path id="Path_249" data-name="Path 249" d="M647.512,117.726c-1.733,3.066-5.335,4.52-8.728,4.52s-6.679-1.152-9.921-2.215c-8.433-2.764-17.643-4.874-25.983-1.8-3.717,1.363-7.139,3.766-11.036,4.369-5.68.934-14.825-4.248-15.817-10.839-1.114,7.615,9.49,14.139,15.817,13.1,3.9-.64,7.319-3.013,11.036-4.369,8.34-3.073,17.549-.964,25.983,1.8,3.242,1.062,6.521,2.26,9.921,2.215s7-1.446,8.728-4.52a9.179,9.179,0,0,0,1.006-5.506,8.392,8.392,0,0,1-1.007,3.247Z" transform="translate(-225.559 -60.28)" opacity="0.1"/>
    <path id="Path_250" data-name="Path 250" d="M1033.413,661.63s4.263,5.838-1.97,14.658-11.366,16.263-9.3,21.762c0,0,9.4-16.376,17.053-16.609S1041.818,671.475,1033.413,661.63Z" transform="translate(-350.837 -195.955)" fill="#ffbf00"/>
    <path id="Path_251" data-name="Path 251" d="M1033.509,661.63a7.361,7.361,0,0,1,.87,1.83c7.463,9.19,11.446,17.769,4.263,17.98-6.686.2-14.7,12.73-16.622,15.886a7.7,7.7,0,0,0,.223.753s9.4-16.376,17.053-16.609S1041.913,671.475,1033.509,661.63Z" transform="translate(-350.932 -195.955)" opacity="0.1"/>
    <path id="Path_252" data-name="Path 252" d="M1048.615,671.08c0,2.056-.223,3.721-.489,3.721s-.5-1.665-.5-3.721.273-1.085.547-1.085S1048.615,669.023,1048.615,671.08Z" transform="translate(-358.13 -197.963)" fill="#ffd037"/>
    <path id="Path_253" data-name="Path 253" d="M1051.477,674.3c-1.718.979-3.221,1.574-3.35,1.326s1.158-1.25,2.876-2.26,1.043-.271,1.172,0S1053.2,673.308,1051.477,674.3Z" transform="translate(-358.267 -198.723)" fill="#ffd037"/>
    <path id="Path_254" data-name="Path 254" d="M1002.922,661.63s-4.263,5.838,1.97,14.658,11.366,16.263,9.289,21.762c0,0-9.4-16.376-17.053-16.609S994.539,671.475,1002.922,661.63Z" transform="translate(-342.877 -195.955)" fill="#ffbf00"/>
    <path id="Path_255" data-name="Path 255" d="M1002.922,661.63a7.391,7.391,0,0,0-.87,1.83c-7.463,9.19-11.446,17.769-4.263,17.98,6.679.2,14.7,12.73,16.622,15.886a6.021,6.021,0,0,1-.23.753s-9.4-16.376-17.053-16.609S994.539,671.475,1002.922,661.63Z" transform="translate(-342.877 -195.955)" opacity="0.1"/>
    <path id="Path_256" data-name="Path 256" d="M995.64,671.08c0,2.056.216,3.721.489,3.721s.5-1.665.5-3.721-.28-1.085-.546-1.085S995.64,669.023,995.64,671.08Z" transform="translate(-343.518 -197.963)" fill="#ffd037"/>
    <path id="Path_257" data-name="Path 257" d="M991.451,674.3c1.718.979,3.221,1.574,3.35,1.326s-1.157-1.25-2.876-2.26-1.043-.271-1.172,0S989.725,673.308,991.451,674.3Z" transform="translate(-342.046 -198.723)" fill="#ffd037"/>
    <ellipse id="Ellipse_15" data-name="Ellipse 15" cx="44.574" cy="7.164" rx="44.574" ry="7.164" transform="translate(626.737 532.451)" fill="#ffbf00" opacity="0.1"/>
    <path id="Path_258" data-name="Path 258" d="M1036.3,698.637l-.216,1.823-.3,2.576-.123,1.077-.3,2.576-.129,1.077-.295,2.569-3.415,29.3c-.3,2.614-4.378,4.655-9.3,4.655h-17.722c-4.925,0-8.994-2.041-9.3-4.655l-3.415-29.3-.3-2.569-.122-1.077-.3-2.576-.129-1.077-.295-2.576-.216-1.823c-.165-1.507,2.035-2.727,4.824-2.727h36.249C1034.262,695.91,1036.469,697.153,1036.3,698.637Z" transform="translate(-342.044 -204.414)" fill="#65617d"/>
    <path id="Path_259" data-name="Path 259" d="M947.589,658.53l-.295,2.576H902.432l-.3-2.576Z" transform="translate(-253.552 -162.484)" fill="#9d9cb5"/>
    <path id="Path_260" data-name="Path 260" d="M947.33,663.38l-.295,2.576H903.022l-.3-2.576Z" transform="translate(-253.718 -163.681)" fill="#9d9cb5"/>
    <path id="Path_261" data-name="Path 261" d="M947.075,668.23l-.3,2.576H903.615l-.295-2.576Z" transform="translate(-253.887 -164.877)" fill="#9d9cb5"/>
  </g>
</svg>
