<svg xmlns="http://www.w3.org/2000/svg" width="882.951" height="612.148" viewBox="0 0 882.951 612.148">
  <g id="undraw_reading_time_gvg0" transform="translate(0 0)" opacity="0.31">
    <path id="Path_346" data-name="Path 346" d="M261.421,674.244s-112.306-51.7-72.853-87.552S261.421,674.244,261.421,674.244Z" transform="translate(-158.524 -143.926)" fill="#e6e6e6"/>
    <path id="Path_347" data-name="Path 347" d="M259.466,686.308S207.846,516.7,283.858,524.813,259.466,686.308,259.466,686.308Z" transform="translate(-158.524 -143.926)" fill="#e6e6e6"/>
    <path id="Path_348" data-name="Path 348" d="M221.829,671.266,224,699.638l.034.49a130.357,130.357,0,0,0,.671,13.266c2.94,28.939,15.579,42.127,30.349,42.127s26.858-13.188,29.8-42.128a130.351,130.351,0,0,0,.671-13.266l.017-.4.009-.095,2.175-28.372Z" transform="translate(-158.524 -143.926)" fill="#e6e6e6"/>
    <path id="Path_349" data-name="Path 349" d="M285.545,699.637l-.009.095-.017.4a130.359,130.359,0,0,1-.671,13.266H224.7a130.349,130.349,0,0,1-.671-13.266l-.034-.49Z" transform="translate(-158.524 -143.926)" fill="#fff"/>
    <path id="Path_350" data-name="Path 350" d="M993.909,691.595s-86.949-40.027-56.4-67.784S993.909,691.595,993.909,691.595Z" transform="translate(-158.524 -143.926)" fill="#e6e6e6"/>
    <path id="Path_351" data-name="Path 351" d="M992.4,700.935S952.43,569.623,1011.28,575.9,992.4,700.935,992.4,700.935Z" transform="translate(-158.524 -143.926)" fill="#e6e6e6"/>
    <path id="Path_352" data-name="Path 352" d="M963.256,689.289l1.677,21.966.027.379a100.909,100.909,0,0,0,.519,10.271c2.276,22.405,12.061,32.616,23.5,32.616s20.794-10.211,23.071-32.616a100.894,100.894,0,0,0,.519-10.271l.013-.306.007-.073,1.684-21.966Z" transform="translate(-158.524 -143.926)" fill="#e6e6e6"/>
    <path id="Path_353" data-name="Path 353" d="M1012.59,711.255l-.007.073-.013.306a100.927,100.927,0,0,1-.519,10.271H965.479a100.911,100.911,0,0,1-.519-10.271l-.026-.379Z" transform="translate(-158.524 -143.926)" fill="#fff"/>
    <path id="Path_354" data-name="Path 354" d="M451.24,326.513V287.926h-6v38.587a8,8,0,1,0,6,0Z" transform="translate(-158.524 -143.926)" fill="#e6e6e6"/>
    <path id="Path_355" data-name="Path 355" d="M465.24,715.926h-41v-498h-16v498h-41a37,37,0,0,0-37,37h172a37,37,0,0,0-37-37Z" transform="translate(-158.524 -143.926)" fill="#e6e6e6"/>
    <path id="Path_356" data-name="Path 356" d="M330.323,291.926H502.157L491.65,160.586a18.2,18.2,0,0,0-18.046-16.66H358.877a18.2,18.2,0,0,0-18.046,16.66Z" transform="translate(-158.524 -143.926)" fill="#ffbf00"/>
    <path id="Path_357" data-name="Path 357" d="M569.58,522.446h0a12.37,12.37,0,0,0-14.258,10.339l-4.838,31.749,16.46,4.366,12.061-29.581a12.37,12.37,0,0,0-9.425-16.873Z" transform="translate(-158.524 -143.926)" fill="#a0616a"/>
    <path id="Path_358" data-name="Path 358" d="M569.272,564.474c9.135,36.3,5.2,69.506-28.812,95.576-40.8-11.247-67.935-38.382-84.491-77.818a19.684,19.684,0,0,1,11.353-26.092h0a19.674,19.674,0,0,1,21.658,5.582l40.031,46.2,18.78-46.589Z" transform="translate(-158.524 -143.926)" fill="#ffbf00"/>
    <path id="Path_359" data-name="Path 359" d="M778.312,754.933c-37.253-1.979-60.4-14.77-66-41l6-11,68.7,31.294a9.609,9.609,0,0,1-.676,17.765Z" transform="translate(-158.524 -143.926)" fill="#e6e6e6"/>
    <path id="Path_360" data-name="Path 360" d="M749.527,755.2c-19.356-.586-37.97-.4-55.609.79a11.781,11.781,0,0,1-12.547-10.816l-1.059-13.237-15-24,13-13c21.847,21.759,45.807,40.036,74.263,50.9a5.132,5.132,0,0,1-3.048,9.363Z" transform="translate(-158.524 -143.926)" fill="#e6e6e6"/>
    <path id="Path_361" data-name="Path 361" d="M644.312,660.933c-24.716,44.226-49.025,74.04-81,90-39.339,12.984-68.09-4.218-90.5-39.5l65-43,9.5,9.5,86.1-65.518a10.993,10.993,0,0,1,15.464.344l73.438,90.174-9,15Z" transform="translate(-158.524 -143.926)" fill="#2f2e41"/>
    <path id="Path_362" data-name="Path 362" d="M507.788,569.007l-34-52,8-15,45,47Z" fill="#2f2e41"/>
    <circle id="Ellipse_24" data-name="Ellipse 24" cx="34" cy="34" r="34" transform="translate(277.788 335.007)" fill="#a0616a"/>
    <path id="Path_363" data-name="Path 363" d="M479.312,575.933l-38-13a47.2,47.2,0,0,0,7-30h31C477.549,548.191,477.285,562.663,479.312,575.933Z" transform="translate(-158.524 -143.926)" fill="#a0616a"/>
    <path id="Path_364" data-name="Path 364" d="M560.312,666.933c-5.7,2.339-6.113,9.923-11.5,12.5-26.039,12.459-53.589,22.568-72.5,40.5-44.193-30.01-85.155-123.217-32-164,18.144,10.617,34.351,18.215,34,0Z" transform="translate(-158.524 -143.926)" fill="#ffbf00"/>
    <path id="Path_365" data-name="Path 365" d="M537.312,626.933l-18.5-6.5-36.5,28.5-16.362-58.9c-1.135-4.085-2.974-2.015-5.614.823a19.664,19.664,0,0,0-33,13.557c-1.946,42.726,10.938,78.874,42.978,106.523,41.907-8.973,59.692-37.286,67-74l-1.981-1.321Q536.426,631.356,537.312,626.933Z" transform="translate(-158.524 -143.926)" opacity="0.2"/>
    <path id="Path_366" data-name="Path 366" d="M474.887,468.207c11.215,2.562,23.98,6.193,24.7,9.567,11.537,2.907,20.245,9.871,22.023,20.487a6.358,6.358,0,0,1-6.378,7.373c-6.274-.081-15.693-.682-21.912-3.279-18.067,11.641-21.1,41.918-13.209,62.528l-12.416-1.138-12.845-37.6-3.281,36.124-28.333-3.746,3.649-46.065a68.631,68.631,0,0,1,10.778-30.433,25.917,25.917,0,0,1,2.028-2.627,36.011,36.011,0,0,1,35.2-11.188Z" transform="translate(-158.524 -143.926)" fill="#2f2e41"/>
    <path id="Path_367" data-name="Path 367" d="M380.285,438.428,411.4,475.011l46.676-55.086L426.54,381.659Z" fill="#3f3d56"/>
    <path id="Path_368" data-name="Path 368" d="M608.613,565.113l-37.005-30.277c2.1-5.046,12.195-3.364,12.195-3.364l28.966,29.366a15.848,15.848,0,0,1,2.571,3.433h0Z" transform="translate(-158.524 -143.926)" fill="#f2f2f2"/>
    <path id="Path_369" data-name="Path 369" d="M610.295,563.01l-42.051-32.8-46.676,70.645L565.511,630.5c4.205,1.682,8.41-1.262,8.41-1.262l42.891-65.6Z" transform="translate(-158.524 -143.926)" fill="#3f3d56"/>
    <rect id="Rectangle_34" data-name="Rectangle 34" width="0.681" height="33.143" transform="matrix(0.584, -0.812, 0.812, 0.584, 414.569, 397.078)" fill="#ffbf00"/>
    <rect id="Rectangle_35" data-name="Rectangle 35" width="64.029" height="0.682" transform="matrix(0.552, -0.834, 0.834, 0.552, 406.918, 476.506)" fill="#ffbf00"/>
    <rect id="Rectangle_36" data-name="Rectangle 36" width="0.682" height="35.492" transform="translate(374.196 457.621) rotate(-53.656)" fill="#ffbf00"/>
    <rect id="Rectangle_37" data-name="Rectangle 37" width="64.041" height="0.681" transform="translate(373.277 450.009) rotate(-55.162)" fill="#ffbf00"/>
    <rect id="Rectangle_38" data-name="Rectangle 38" width="0.42" height="45.164" transform="translate(420.879 387.44) rotate(-47.455)" fill="#b3b3b3"/>
    <rect id="Rectangle_39" data-name="Rectangle 39" width="0.421" height="46.389" transform="translate(418.115 387.707) rotate(-48.561)" fill="#b3b3b3"/>
    <rect id="Rectangle_40" data-name="Rectangle 40" width="0.421" height="46.998" transform="matrix(0.64, -0.768, 0.768, 0.64, 415.943, 388.327)" fill="#b3b3b3"/>
    <path id="Path_370" data-name="Path 370" d="M555.606,593.094h0a12.37,12.37,0,0,0-17.314,3.229l-17.98,26.61,13,11,23.576-21.555a12.37,12.37,0,0,0-1.283-19.284Z" transform="translate(-158.524 -143.926)" fill="#a0616a"/>
    <path id="Path_371" data-name="Path 371" d="M537.312,630.933c-7.308,36.714-25.093,65.027-67,74-32.04-27.65-44.925-63.8-42.978-106.523A19.684,19.684,0,0,1,448.776,579.7h0a19.674,19.674,0,0,1,17.175,14.328l16.362,58.9,36.937-34.042Z" transform="translate(-158.524 -143.926)" fill="#ffbf00"/>
    <path id="Path_372" data-name="Path 372" d="M882.556,612.148H0v-2.182H882.951Z" fill="#3f3d56"/>
    <path id="Path_373" data-name="Path 373" d="M619.812,235.433a2,2,0,0,0-2,2v156a2,2,0,0,0,2,2h130a2,2,0,0,0,2-2v-156a2,2,0,0,0-2-2Z" transform="translate(-158.524 -143.926)" fill="#e6e6e6"/>
    <path id="Path_374" data-name="Path 374" d="M633.312,379.933h103v-129h-103Z" transform="translate(-158.524 -143.926)" fill="#fff"/>
    <path id="Path_375" data-name="Path 375" d="M836.245,276.433a1.2,1.2,0,0,0-1.194,1.194v77.612a1.2,1.2,0,0,0,1.194,1.194h93.134a1.2,1.2,0,0,0,1.194-1.194V277.627a1.2,1.2,0,0,0-1.194-1.194Z" transform="translate(-158.524 -143.926)" fill="#e6e6e6"/>
    <path id="Path_376" data-name="Path 376" d="M844.3,285.687v61.492H921.32V285.687Z" transform="translate(-158.524 -143.926)" fill="#fff"/>
    <path id="Path_377" data-name="Path 377" d="M703,246.433H666.626a4.989,4.989,0,0,1-4.33-7.5l18.187-31.5.045-.078a4.941,4.941,0,0,1,3.787-2.4l.026,0c.155-.014.313-.021.472-.021a4.949,4.949,0,0,1,4.33,2.5l18.186,31.5a5,5,0,0,1-4.33,7.5Zm-37.377-5.005a1.029,1.029,0,0,0,.138.5.983.983,0,0,0,.866.5H703a.982.982,0,0,0,.866-.5,1.028,1.028,0,0,0,.138-.5.985.985,0,0,0-.138-.5l-18.187-31.5a1,1,0,0,0-1.732,0l-18.187,31.5A.981.981,0,0,0,665.622,241.428Z" transform="translate(-158.524 -143.926)" fill="#e6e6e6"/>
    <circle id="Ellipse_25" data-name="Ellipse 25" cx="3" cy="3" r="3" transform="translate(523.288 64.507)" fill="#e6e6e6"/>
    <path id="Path_378" data-name="Path 378" d="M892.672,278.933h-19.72a2.7,2.7,0,0,1-2.348-4.066l9.86-17.078.025-.042a2.679,2.679,0,0,1,2.053-1.3h.014c.084-.008.17-.012.256-.012a2.683,2.683,0,0,1,2.348,1.355l9.86,17.078a2.711,2.711,0,0,1-2.348,4.066Zm-20.265-2.714a.557.557,0,0,0,.075.274.533.533,0,0,0,.47.271h19.72a.533.533,0,0,0,.47-.271.558.558,0,0,0,.075-.273.534.534,0,0,0-.075-.268l-9.86-17.078a.542.542,0,0,0-.939,0l-9.86,17.078a.532.532,0,0,0-.075.268Z" transform="translate(-158.524 -143.926)" fill="#e6e6e6"/>
    <circle id="Ellipse_26" data-name="Ellipse 26" cx="1.627" cy="1.627" r="1.627" transform="translate(722.661 114.404)" fill="#e6e6e6"/>
    <path id="Path_379" data-name="Path 379" d="M634.491,330.814a26.491,26.491,0,0,1,15.262-14.327,26.181,26.181,0,0,1,21.812,1.357c7.8,4.142,14.042,10.653,21.968,14.617a56.179,56.179,0,0,0,24.786,5.839,55.478,55.478,0,0,0,27.793-7.214,1.5,1.5,0,0,0-1.514-2.59,53.343,53.343,0,0,1-50.43.925c-7.951-4.169-14.251-10.9-22.351-14.807a28.88,28.88,0,0,0-22.23-1.248A29.845,29.845,0,0,0,631.6,330.016c-.728,1.787,2.173,2.565,2.893.8Z" transform="translate(-158.524 -143.926)" fill="#e6e6e6"/>
    <path id="Path_380" data-name="Path 380" d="M632.12,358.857a114.2,114.2,0,0,1,50.54.175c14.766,3.424,30.009,9.585,45.234,4.99,6.8-2.053,13.035-6.158,16.53-12.477.935-1.691-1.655-3.206-2.59-1.514-6.579,11.9-21.992,13.9-34.166,11.952-8.134-1.3-15.974-3.92-23.98-5.791a116.877,116.877,0,0,0-52.364-.228c-1.883.421-1.086,3.314.8,2.893Z" transform="translate(-158.524 -143.926)" fill="#e6e6e6"/>
    <path id="Path_381" data-name="Path 381" d="M631.039,291.8a118.628,118.628,0,0,1,48.042,1.709c14.695,3.6,29.059,11.826,44.6,10.405,7.194-.658,14.316-3.3,19.2-8.807,1.278-1.439-.836-3.569-2.121-2.121-4.216,4.747-10.288,7.208-16.519,7.873-7.182.766-14.238-.722-21.074-2.836-7.566-2.34-14.917-5.3-22.609-7.239a121.5,121.5,0,0,0-50.316-1.877c-1.9.324-1.094,3.216.8,2.893Z" transform="translate(-158.524 -143.926)" fill="#e6e6e6"/>
    <path id="Path_382" data-name="Path 382" d="M857.716,284.674a52.3,52.3,0,0,1,13.722,25.587,51.654,51.654,0,0,1-11.168,43.861c-1.243,1.463.869,3.6,2.121,2.121a55.414,55.414,0,0,0,12.7-28.673,54.693,54.693,0,0,0-15.253-45.018c-1.354-1.381-3.475.741-2.121,2.121Z" transform="translate(-158.524 -143.926)" fill="#e6e6e6"/>
    <path id="Path_383" data-name="Path 383" d="M902.727,278.272c-9.194,6.743-14.341,17.627-15.065,28.885-.754,11.714,3.714,23.026,10.907,32.12a62.463,62.463,0,0,0,14.848,13.4c1.62,1.06,3.125-1.536,1.514-2.59-9.185-6.01-17.044-14.546-21.217-24.791a40.117,40.117,0,0,1-.087-30.738,32.842,32.842,0,0,1,10.614-13.7c1.541-1.13.046-3.735-1.514-2.59Z" transform="translate(-158.524 -143.926)" fill="#e6e6e6"/>
    <circle id="Ellipse_27" data-name="Ellipse 27" cx="14" cy="14" r="14" transform="translate(519.288 136.507)" fill="#e6e6e6"/>
  </g>
</svg>
